<?xml version="1.0" encoding="UTF-8"?>
<svg id="Layer_2" data-name="Layer 2" xmlns="http://www.w3.org/2000/svg" viewBox="0 0 725.79 222.41">
  <defs>
    <style>
      .cls-1 {
        fill: #e740ff;
      }

      .cls-2, .cls-3, .cls-4, .cls-5, .cls-6, .cls-7, .cls-8 {
        stroke: #9a7ac1;
        stroke-miterlimit: 10;
      }

      .cls-2, .cls-3, .cls-4, .cls-5, .cls-6, .cls-7, .cls-8, .cls-9 {
        fill: none;
      }

      .cls-3 {
        opacity: .46;
      }

      .cls-3, .cls-4 {
        stroke-dasharray: 1 2 .02 .02;
      }

      .cls-5 {
        stroke-dasharray: 1 2 .02 .02;
      }

      .cls-6 {
        stroke-dasharray: 1 2 .02 .02;
      }

      .cls-7 {
        stroke-dasharray: .02 .02;
      }

      .cls-8 {
        stroke-dasharray: .02 .02;
      }

      .cls-9 {
        stroke: #e740ff;
        stroke-linejoin: round;
        stroke-width: 2px;
      }
    </style>
  </defs>
  <g id="Layer_5" data-name="Layer 5">
    <g>
      <g>
        <path class="cls-9" d="M348.13,140.74c-13.26-.03-35.52-.05-49.9-.07-14.38-.02-28.82-.03-42.34-.04-20.89.49-35.62.54-48.07-4.15-12.44-4.69-22.6-14.11-34.34-32.57C141.01,55.42,128.53,28.85,108.73,14.93,88.93,1,61.81-.28.03,1.78"/>
        <path class="cls-9" d="M379.25,140.89c13.26-.03,33.93-.05,48.31-.07,14.38-.02,28.82-.03,42.34-.04,20.89.49,35.62.54,48.07-4.15,12.44-4.69,22.6-14.11,34.34-32.57,32.48-48.5,44.95-75.06,64.75-88.98,19.8-13.92,46.92-15.21,108.7-13.15"/>
        <path class="cls-1" d="M362.9,123.71c9.31,0,16.85,7.54,16.85,16.85s-7.54,16.85-16.85,16.85"/>
        <g>
          <path class="cls-4" d="M393.78,205.86h-185.73c-40.99-.19-61.48-36.5-64.59-40.46-3.11-3.96-26.88-44.42-26.88-44.42,0,0-22.35-35.09-31.97-46.41-3.31-3.89-7.75-6.63-11.97-8.9-9.81-5.28-31.22-5.28-39.29-5.28l-29.46.79"/>
          <path class="cls-2" d="M408.9,220.97c-8.35,0-15.12-6.77-15.12-15.12s6.77-15.12,15.12-15.12v30.23Z"/>
          <path class="cls-4" d="M432.57,206h85.17c40.99-.19,61.48-36.5,64.59-40.46s26.88-44.42,26.88-44.42c0,0,22.35-35.09,31.97-46.41,3.31-3.89,7.75-6.63,11.97-8.9,9.81-5.28,31.22-5.28,39.29-5.28h30.25"/>
          <path class="cls-2" d="M417.46,221.11c8.35,0,15.12-6.77,15.12-15.12,0-8.35-6.77-15.12-15.12-15.12v30.23Z"/>
        </g>
        <g>
          <g>
            <line class="cls-2" x1="291.11" y1="75.63" x2="290.61" y2="75.63"/>
            <line class="cls-8" x1="288.61" y1="75.63" x2="288.58" y2="75.63"/>
            <path class="cls-6" d="M288.57,75.63h-80.52c-40.99.19-61.48,36.5-64.59,40.46s-26.88,44.42-26.88,44.42c0,0-22.35,35.09-31.97,46.41-3.31,3.89-7.75,6.63-11.97,8.9-9.81,5.28-31.22,5.28-39.29,5.28l-28.95.78"/>
            <line class="cls-2" x1="4.39" y1="221.89" x2="3.89" y2="221.91"/>
          </g>
          <path class="cls-2" d="M306.22,60.52c-8.35,0-15.12,6.77-15.12,15.12s6.77,15.12,15.12,15.12v-30.23Z"/>
          <g>
            <line class="cls-2" x1="329.9" y1="75.49" x2="330.4" y2="75.49"/>
            <line class="cls-7" x1="332.39" y1="75.49" x2="332.42" y2="75.49"/>
            <path class="cls-5" d="M332.43,75.49h185.31c40.99.19,61.48,36.5,64.59,40.46s26.88,44.42,26.88,44.42c0,0,22.35,35.09,31.97,46.41,3.31,3.89,7.75,6.63,11.97,8.9,9.81,5.28,31.22,5.28,39.29,5.28h29.74"/>
            <line class="cls-2" x1="722.2" y1="220.97" x2="722.7" y2="220.97"/>
          </g>
          <path class="cls-2" d="M314.78,60.37c8.35,0,15.12,6.77,15.12,15.12s-6.77,15.12-15.12,15.12v-30.23Z"/>
        </g>
      </g>
      <path class="cls-1" d="M363.05,157.39c-9.31,0-16.85-7.54-16.85-16.85s7.54-16.85,16.85-16.85"/>
      <circle class="cls-4" cx="363.05" cy="140.22" r="27.79"/>
      <circle class="cls-3" cx="363.05" cy="140.22" r="38.91"/>
    </g>
  </g>
</svg>