<?xml version="1.0" encoding="UTF-8"?>
<svg xmlns="http://www.w3.org/2000/svg" xmlns:xlink="http://www.w3.org/1999/xlink" width="20px" height="16px" viewBox="0 0 19 16" version="1.1">
<g id="surface1">
<path style=" stroke:none;fill-rule:nonzero;fill:rgb(63.137257%,41.960785%,98.431373%);fill-opacity:1;" d="M 5.3125 0.371094 C 5.347656 0.394531 5.367188 0.421875 5.390625 0.457031 C 5.398438 0.46875 5.402344 0.476562 5.410156 0.488281 C 5.414062 0.492188 5.417969 0.5 5.421875 0.503906 C 5.441406 0.53125 5.460938 0.554688 5.476562 0.582031 C 5.484375 0.589844 5.484375 0.589844 5.488281 0.597656 C 5.5 0.613281 5.511719 0.628906 5.523438 0.644531 C 5.570312 0.710938 5.617188 0.773438 5.664062 0.839844 C 5.703125 0.898438 5.742188 0.953125 5.78125 1.007812 C 5.828125 1.074219 5.875 1.140625 5.921875 1.207031 C 5.957031 1.257812 5.996094 1.308594 6.03125 1.359375 C 6.054688 1.390625 6.074219 1.417969 6.097656 1.449219 C 6.117188 1.476562 6.132812 1.503906 6.152344 1.527344 C 6.191406 1.582031 6.230469 1.636719 6.269531 1.695312 C 6.308594 1.75 6.351562 1.804688 6.390625 1.863281 C 6.4375 1.925781 6.484375 1.992188 6.53125 2.058594 C 6.570312 2.113281 6.609375 2.171875 6.648438 2.226562 C 6.695312 2.292969 6.742188 2.355469 6.789062 2.421875 C 6.828125 2.480469 6.871094 2.535156 6.910156 2.589844 C 6.957031 2.65625 7.003906 2.722656 7.050781 2.789062 C 7.085938 2.839844 7.121094 2.890625 7.15625 2.941406 C 7.179688 2.96875 7.203125 3 7.226562 3.03125 C 7.242188 3.058594 7.261719 3.085938 7.28125 3.109375 C 7.320312 3.164062 7.359375 3.21875 7.398438 3.277344 C 7.4375 3.332031 7.476562 3.386719 7.519531 3.445312 C 7.566406 3.507812 7.613281 3.574219 7.65625 3.640625 C 7.695312 3.695312 7.738281 3.753906 7.777344 3.808594 C 7.824219 3.875 7.871094 3.9375 7.917969 4.003906 C 7.953125 4.054688 7.988281 4.105469 8.027344 4.15625 C 8.046875 4.1875 8.070312 4.21875 8.09375 4.25 C 8.109375 4.277344 8.128906 4.300781 8.148438 4.328125 C 8.1875 4.382812 8.226562 4.4375 8.265625 4.492188 C 8.304688 4.550781 8.34375 4.605469 8.386719 4.660156 C 8.433594 4.726562 8.480469 4.792969 8.523438 4.859375 C 8.566406 4.914062 8.605469 4.96875 8.644531 5.023438 C 8.691406 5.089844 8.738281 5.15625 8.785156 5.222656 C 8.824219 5.277344 8.863281 5.335938 8.90625 5.390625 C 8.953125 5.457031 9 5.519531 9.042969 5.585938 C 9.082031 5.636719 9.117188 5.6875 9.152344 5.738281 C 9.175781 5.769531 9.199219 5.800781 9.21875 5.832031 C 9.238281 5.855469 9.257812 5.882812 9.273438 5.910156 C 9.3125 5.960938 9.347656 6.011719 9.382812 6.0625 C 9.410156 6.101562 9.4375 6.140625 9.464844 6.179688 C 9.46875 6.183594 9.472656 6.1875 9.476562 6.191406 C 9.492188 6.210938 9.492188 6.210938 9.507812 6.230469 C 9.507812 6.226562 9.507812 6.226562 9.511719 6.21875 C 9.550781 6.164062 9.59375 6.105469 9.632812 6.050781 C 9.660156 6.011719 9.691406 5.96875 9.71875 5.929688 C 9.765625 5.863281 9.8125 5.796875 9.859375 5.730469 C 9.898438 5.675781 9.9375 5.621094 9.976562 5.566406 C 10.023438 5.5 10.070312 5.433594 10.121094 5.367188 C 10.160156 5.3125 10.199219 5.257812 10.238281 5.199219 C 10.285156 5.132812 10.332031 5.070312 10.378906 5.003906 C 10.417969 4.949219 10.457031 4.890625 10.496094 4.835938 C 10.542969 4.769531 10.589844 4.703125 10.636719 4.636719 C 10.679688 4.582031 10.71875 4.527344 10.757812 4.472656 C 10.804688 4.40625 10.851562 4.339844 10.898438 4.273438 C 10.9375 4.21875 10.976562 4.164062 11.015625 4.105469 C 11.0625 4.042969 11.109375 3.976562 11.15625 3.910156 C 11.199219 3.855469 11.238281 3.796875 11.277344 3.742188 C 11.324219 3.675781 11.371094 3.609375 11.417969 3.546875 C 11.457031 3.488281 11.496094 3.433594 11.535156 3.378906 C 11.582031 3.3125 11.628906 3.246094 11.675781 3.179688 C 11.71875 3.125 11.757812 3.070312 11.796875 3.015625 C 11.84375 2.949219 11.890625 2.882812 11.9375 2.816406 C 11.976562 2.761719 12.015625 2.707031 12.054688 2.648438 C 12.101562 2.582031 12.148438 2.515625 12.195312 2.453125 C 12.238281 2.394531 12.277344 2.339844 12.316406 2.285156 C 12.363281 2.21875 12.410156 2.152344 12.457031 2.085938 C 12.496094 2.03125 12.535156 1.976562 12.574219 1.921875 C 12.621094 1.855469 12.667969 1.789062 12.714844 1.722656 C 12.753906 1.667969 12.796875 1.613281 12.835938 1.554688 C 12.882812 1.488281 12.929688 1.421875 12.976562 1.359375 C 13.015625 1.300781 13.054688 1.246094 13.09375 1.191406 C 13.140625 1.125 13.1875 1.058594 13.234375 0.992188 C 13.273438 0.9375 13.316406 0.882812 13.355469 0.828125 C 13.398438 0.761719 13.449219 0.695312 13.496094 0.628906 C 13.503906 0.617188 13.511719 0.609375 13.515625 0.597656 C 13.523438 0.585938 13.53125 0.578125 13.539062 0.566406 C 13.558594 0.539062 13.578125 0.515625 13.59375 0.488281 C 13.601562 0.480469 13.601562 0.480469 13.605469 0.472656 C 13.613281 0.460938 13.621094 0.453125 13.625 0.441406 C 13.65625 0.402344 13.6875 0.363281 13.738281 0.351562 C 13.78125 0.347656 13.820312 0.347656 13.855469 0.378906 C 13.890625 0.40625 13.910156 0.441406 13.933594 0.476562 C 13.9375 0.484375 13.941406 0.488281 13.945312 0.496094 C 13.957031 0.519531 13.972656 0.539062 13.984375 0.558594 C 13.992188 0.574219 14 0.585938 14.007812 0.601562 C 14.03125 0.632812 14.050781 0.667969 14.074219 0.703125 C 14.09375 0.734375 14.113281 0.769531 14.136719 0.804688 C 14.160156 0.84375 14.1875 0.886719 14.214844 0.929688 C 14.253906 0.992188 14.292969 1.054688 14.332031 1.117188 C 14.359375 1.160156 14.386719 1.203125 14.414062 1.25 C 14.4375 1.285156 14.457031 1.320312 14.480469 1.355469 C 14.511719 1.40625 14.542969 1.453125 14.570312 1.503906 C 14.59375 1.539062 14.617188 1.574219 14.640625 1.609375 C 14.671875 1.660156 14.699219 1.707031 14.730469 1.757812 C 14.753906 1.792969 14.773438 1.828125 14.796875 1.863281 C 14.828125 1.914062 14.859375 1.960938 14.886719 2.011719 C 14.910156 2.046875 14.933594 2.082031 14.957031 2.117188 C 14.984375 2.160156 15.007812 2.203125 15.035156 2.246094 C 15.0625 2.289062 15.085938 2.328125 15.113281 2.371094 C 15.15625 2.4375 15.195312 2.503906 15.238281 2.570312 C 15.257812 2.605469 15.28125 2.636719 15.300781 2.671875 C 15.328125 2.714844 15.351562 2.753906 15.378906 2.796875 C 15.417969 2.859375 15.457031 2.921875 15.496094 2.984375 C 15.523438 3.03125 15.550781 3.074219 15.578125 3.117188 C 15.601562 3.152344 15.625 3.1875 15.648438 3.226562 C 15.675781 3.273438 15.707031 3.320312 15.738281 3.371094 C 15.757812 3.40625 15.78125 3.441406 15.804688 3.480469 C 15.835938 3.527344 15.867188 3.574219 15.894531 3.625 C 15.917969 3.660156 15.941406 3.695312 15.964844 3.734375 C 15.992188 3.78125 16.023438 3.828125 16.054688 3.878906 C 16.078125 3.914062 16.097656 3.949219 16.121094 3.988281 C 16.152344 4.035156 16.183594 4.082031 16.210938 4.132812 C 16.234375 4.167969 16.257812 4.203125 16.28125 4.242188 C 16.308594 4.289062 16.339844 4.335938 16.371094 4.386719 C 16.394531 4.421875 16.414062 4.457031 16.4375 4.496094 C 16.464844 4.535156 16.492188 4.578125 16.515625 4.621094 C 16.542969 4.664062 16.570312 4.707031 16.597656 4.746094 C 16.636719 4.8125 16.679688 4.878906 16.71875 4.945312 C 16.742188 4.980469 16.761719 5.015625 16.785156 5.046875 C 16.808594 5.089844 16.835938 5.128906 16.859375 5.171875 C 16.898438 5.234375 16.9375 5.296875 16.980469 5.363281 C 17.007812 5.40625 17.035156 5.449219 17.0625 5.492188 C 17.082031 5.527344 17.105469 5.566406 17.128906 5.601562 C 17.160156 5.648438 17.1875 5.699219 17.21875 5.746094 C 17.242188 5.78125 17.265625 5.820312 17.285156 5.855469 C 17.316406 5.902344 17.347656 5.953125 17.378906 6 C 17.398438 6.035156 17.421875 6.074219 17.445312 6.109375 C 17.476562 6.15625 17.503906 6.207031 17.535156 6.253906 C 17.558594 6.289062 17.582031 6.328125 17.601562 6.363281 C 17.632812 6.410156 17.664062 6.460938 17.695312 6.507812 C 17.714844 6.542969 17.738281 6.582031 17.761719 6.617188 C 17.792969 6.664062 17.824219 6.714844 17.851562 6.761719 C 17.875 6.796875 17.898438 6.835938 17.921875 6.871094 C 17.945312 6.914062 17.972656 6.957031 18 6.996094 C 18.023438 7.039062 18.050781 7.082031 18.078125 7.125 C 18.121094 7.1875 18.160156 7.253906 18.203125 7.320312 C 18.222656 7.355469 18.242188 7.390625 18.265625 7.425781 C 18.292969 7.464844 18.316406 7.507812 18.34375 7.546875 C 18.382812 7.609375 18.421875 7.675781 18.460938 7.738281 C 18.488281 7.78125 18.515625 7.824219 18.542969 7.867188 C 18.566406 7.90625 18.585938 7.941406 18.609375 7.976562 C 18.617188 7.984375 18.621094 7.996094 18.628906 8.003906 C 18.636719 8.019531 18.644531 8.035156 18.65625 8.050781 C 18.773438 8.234375 18.855469 8.414062 18.816406 8.640625 C 18.785156 8.777344 18.710938 8.882812 18.628906 8.992188 C 18.601562 9.027344 18.578125 9.058594 18.554688 9.089844 C 18.550781 9.097656 18.546875 9.101562 18.546875 9.105469 C 18.539062 9.117188 18.53125 9.125 18.523438 9.136719 C 18.46875 9.210938 18.417969 9.285156 18.363281 9.355469 C 18.324219 9.410156 18.289062 9.460938 18.25 9.515625 C 18.234375 9.539062 18.214844 9.566406 18.195312 9.589844 C 18.1875 9.601562 18.179688 9.613281 18.171875 9.621094 C 17.597656 10.425781 17.597656 10.425781 17.585938 10.441406 C 17.578125 10.453125 17.570312 10.460938 17.5625 10.472656 C 17.546875 10.5 17.527344 10.523438 17.507812 10.550781 C 17.472656 10.601562 17.4375 10.652344 17.402344 10.703125 C 17.355469 10.769531 17.308594 10.832031 17.261719 10.898438 C 17.21875 10.953125 17.179688 11.011719 17.140625 11.066406 C 17.09375 11.132812 17.046875 11.199219 17 11.265625 C 16.957031 11.324219 16.914062 11.382812 16.871094 11.445312 C 16.84375 11.484375 16.8125 11.527344 16.785156 11.566406 C 16.761719 11.601562 16.734375 11.636719 16.710938 11.671875 C 16.679688 11.71875 16.644531 11.761719 16.613281 11.808594 C 16.589844 11.84375 16.5625 11.878906 16.539062 11.914062 C 16.507812 11.957031 16.476562 12.003906 16.441406 12.046875 C 16.417969 12.082031 16.394531 12.117188 16.367188 12.152344 C 16.339844 12.191406 16.3125 12.234375 16.28125 12.273438 C 16.242188 12.332031 16.199219 12.390625 16.15625 12.453125 C 16.109375 12.515625 16.066406 12.582031 16.019531 12.648438 C 15.984375 12.695312 15.949219 12.746094 15.914062 12.796875 C 15.894531 12.824219 15.871094 12.855469 15.851562 12.882812 C 15.835938 12.90625 15.816406 12.933594 15.800781 12.957031 C 15.765625 13.007812 15.730469 13.058594 15.691406 13.109375 C 15.664062 13.152344 15.632812 13.191406 15.601562 13.234375 C 15.582031 13.261719 15.566406 13.289062 15.546875 13.316406 C 15.542969 13.320312 15.539062 13.328125 15.535156 13.332031 C 15.527344 13.339844 15.523438 13.351562 15.515625 13.363281 C 15.5 13.382812 15.488281 13.402344 15.472656 13.421875 C 15.464844 13.429688 15.460938 13.441406 15.453125 13.449219 C 15.433594 13.472656 15.417969 13.5 15.402344 13.523438 C 15.367188 13.574219 15.328125 13.625 15.292969 13.675781 C 15.261719 13.71875 15.234375 13.757812 15.203125 13.800781 C 15.183594 13.828125 15.167969 13.855469 15.148438 13.882812 C 15.144531 13.886719 15.140625 13.894531 15.136719 13.898438 C 15.128906 13.90625 15.121094 13.917969 15.117188 13.929688 C 15.097656 13.953125 15.082031 13.976562 15.0625 14 C 15.058594 14.011719 15.050781 14.019531 15.042969 14.03125 C 15.039062 14.035156 15.035156 14.039062 15.03125 14.046875 C 15.003906 14.089844 15.003906 14.089844 14.992188 14.105469 C 14.984375 14.113281 14.976562 14.125 14.972656 14.132812 C 14.953125 14.15625 14.9375 14.183594 14.917969 14.207031 C 14.886719 14.253906 14.851562 14.304688 14.820312 14.351562 C 14.796875 14.382812 14.777344 14.414062 14.753906 14.441406 C 14.726562 14.480469 14.699219 14.519531 14.675781 14.558594 C 14.632812 14.621094 14.585938 14.683594 14.542969 14.746094 C 14.492188 14.816406 14.445312 14.886719 14.394531 14.957031 C 14.355469 15.015625 14.320312 15.070312 14.277344 15.125 C 14.25 15.167969 14.222656 15.210938 14.195312 15.25 C 14.1875 15.257812 14.1875 15.257812 14.183594 15.265625 C 14.164062 15.296875 14.144531 15.324219 14.125 15.351562 C 14.007812 15.53125 14.007812 15.53125 13.910156 15.554688 C 13.871094 15.5625 13.828125 15.558594 13.785156 15.558594 C 13.773438 15.558594 13.761719 15.558594 13.753906 15.558594 C 13.722656 15.558594 13.695312 15.558594 13.667969 15.558594 C 13.636719 15.558594 13.605469 15.558594 13.574219 15.558594 C 13.511719 15.558594 13.453125 15.558594 13.390625 15.558594 C 13.339844 15.558594 13.292969 15.558594 13.242188 15.558594 C 13.234375 15.558594 13.230469 15.558594 13.222656 15.558594 C 13.207031 15.558594 13.191406 15.558594 13.179688 15.558594 C 13.042969 15.558594 12.910156 15.558594 12.777344 15.558594 C 12.660156 15.558594 12.546875 15.558594 12.433594 15.558594 C 12.300781 15.558594 12.164062 15.558594 12.03125 15.558594 C 12.019531 15.558594 12.003906 15.558594 11.988281 15.558594 C 11.980469 15.558594 11.976562 15.558594 11.96875 15.558594 C 11.917969 15.558594 11.871094 15.558594 11.820312 15.558594 C 11.761719 15.558594 11.699219 15.558594 11.640625 15.558594 C 11.609375 15.558594 11.578125 15.558594 11.546875 15.558594 C 11.519531 15.558594 11.492188 15.558594 11.464844 15.558594 C 11.453125 15.558594 11.445312 15.558594 11.433594 15.558594 C 11.355469 15.558594 11.285156 15.558594 11.222656 15.507812 C 11.1875 15.46875 11.167969 15.425781 11.148438 15.375 C 11.144531 15.367188 11.140625 15.363281 11.140625 15.355469 C 11.132812 15.339844 11.128906 15.324219 11.121094 15.308594 C 11.105469 15.273438 11.089844 15.238281 11.078125 15.203125 C 11.070312 15.191406 11.066406 15.179688 11.0625 15.167969 C 11.03125 15.089844 11 15.015625 10.96875 14.9375 C 10.960938 14.925781 10.957031 14.914062 10.953125 14.902344 C 10.941406 14.878906 10.929688 14.855469 10.921875 14.832031 C 10.90625 14.796875 10.890625 14.761719 10.878906 14.730469 C 10.859375 14.6875 10.84375 14.644531 10.824219 14.605469 C 10.808594 14.5625 10.789062 14.519531 10.773438 14.480469 C 10.710938 14.335938 10.652344 14.195312 10.589844 14.054688 C 10.578125 14.019531 10.5625 13.988281 10.546875 13.953125 C 10.542969 13.945312 10.542969 13.941406 10.539062 13.933594 C 10.527344 13.90625 10.515625 13.878906 10.503906 13.851562 C 10.484375 13.804688 10.464844 13.753906 10.441406 13.707031 C 10.433594 13.6875 10.425781 13.667969 10.417969 13.648438 C 10.414062 13.640625 10.410156 13.632812 10.40625 13.625 C 10.359375 13.519531 10.359375 13.519531 10.375 13.472656 C 10.386719 13.441406 10.40625 13.417969 10.425781 13.394531 C 10.433594 13.382812 10.441406 13.371094 10.445312 13.363281 C 10.449219 13.355469 10.453125 13.351562 10.457031 13.347656 C 10.472656 13.324219 10.488281 13.300781 10.503906 13.28125 C 10.53125 13.242188 10.554688 13.203125 10.582031 13.164062 C 10.585938 13.15625 10.589844 13.152344 10.59375 13.148438 C 10.601562 13.136719 10.609375 13.125 10.617188 13.113281 C 10.632812 13.085938 10.652344 13.058594 10.671875 13.03125 C 10.679688 13.019531 10.6875 13.011719 10.695312 13 C 10.699219 12.992188 10.699219 12.988281 10.703125 12.984375 C 10.738281 12.933594 10.738281 12.933594 10.75 12.917969 C 10.757812 12.90625 10.765625 12.894531 10.769531 12.886719 C 10.789062 12.859375 10.808594 12.832031 10.828125 12.804688 C 10.871094 12.742188 10.914062 12.675781 10.957031 12.613281 C 10.988281 12.566406 11.019531 12.519531 11.050781 12.476562 C 11.078125 12.433594 11.105469 12.394531 11.132812 12.351562 C 11.164062 12.304688 11.195312 12.257812 11.230469 12.210938 C 11.273438 12.144531 11.316406 12.082031 11.363281 12.015625 C 11.386719 11.976562 11.414062 11.941406 11.4375 11.902344 C 11.460938 11.871094 11.480469 11.839844 11.5 11.808594 C 11.546875 11.746094 11.589844 11.679688 11.632812 11.617188 C 11.671875 11.554688 11.714844 11.496094 11.753906 11.4375 C 11.765625 11.417969 11.78125 11.398438 11.792969 11.378906 C 11.832031 11.324219 11.867188 11.269531 11.902344 11.214844 C 11.933594 11.171875 11.960938 11.128906 11.992188 11.085938 C 12.050781 10.996094 12.113281 10.90625 12.171875 10.816406 C 12.199219 10.777344 12.226562 10.738281 12.253906 10.699219 C 12.277344 10.664062 12.296875 10.632812 12.320312 10.597656 C 12.371094 10.523438 12.421875 10.449219 12.472656 10.375 C 12.515625 10.3125 12.558594 10.246094 12.601562 10.179688 C 12.632812 10.136719 12.664062 10.09375 12.691406 10.046875 C 12.71875 10.007812 12.746094 9.96875 12.773438 9.925781 C 12.796875 9.890625 12.824219 9.851562 12.847656 9.8125 C 12.882812 9.761719 12.917969 9.710938 12.953125 9.660156 C 12.980469 9.621094 13.007812 9.578125 13.035156 9.539062 C 13.074219 9.476562 13.117188 9.417969 13.15625 9.355469 C 13.171875 9.332031 13.1875 9.308594 13.203125 9.289062 C 13.207031 9.285156 13.207031 9.277344 13.210938 9.273438 C 13.21875 9.265625 13.222656 9.257812 13.226562 9.25 C 13.246094 9.222656 13.261719 9.199219 13.28125 9.171875 C 13.292969 9.148438 13.308594 9.128906 13.324219 9.109375 C 13.339844 9.082031 13.359375 9.054688 13.375 9.027344 C 13.378906 9.023438 13.382812 9.019531 13.386719 9.011719 C 13.410156 8.976562 13.433594 8.941406 13.457031 8.90625 C 13.46875 8.890625 13.476562 8.875 13.488281 8.859375 C 13.5 8.839844 13.515625 8.816406 13.53125 8.796875 C 13.535156 8.789062 13.542969 8.777344 13.546875 8.769531 C 13.605469 8.6875 13.605469 8.6875 13.613281 8.59375 C 13.605469 8.554688 13.585938 8.523438 13.570312 8.492188 C 13.566406 8.484375 13.5625 8.476562 13.558594 8.472656 C 13.535156 8.425781 13.507812 8.382812 13.480469 8.335938 C 13.460938 8.300781 13.441406 8.261719 13.417969 8.226562 C 13.414062 8.21875 13.410156 8.210938 13.40625 8.203125 C 13.394531 8.179688 13.382812 8.160156 13.371094 8.136719 C 13.320312 8.046875 13.269531 7.957031 13.21875 7.871094 C 13.191406 7.820312 13.164062 7.773438 13.136719 7.726562 C 13.105469 7.667969 13.074219 7.609375 13.039062 7.554688 C 13.019531 7.519531 13.003906 7.488281 12.984375 7.453125 C 12.9375 7.371094 12.886719 7.285156 12.839844 7.203125 C 12.800781 7.136719 12.761719 7.070312 12.722656 7.003906 C 12.71875 6.992188 12.710938 6.984375 12.707031 6.972656 C 12.695312 6.953125 12.691406 6.9375 12.691406 6.914062 C 12.703125 6.882812 12.71875 6.855469 12.734375 6.828125 C 12.738281 6.824219 12.742188 6.820312 12.742188 6.816406 C 12.75 6.808594 12.753906 6.800781 12.757812 6.792969 C 12.769531 6.777344 12.78125 6.757812 12.792969 6.742188 C 12.800781 6.730469 12.808594 6.722656 12.8125 6.710938 C 12.847656 6.65625 12.886719 6.601562 12.921875 6.546875 C 12.9375 6.523438 12.953125 6.5 12.96875 6.476562 C 12.980469 6.457031 12.992188 6.441406 13.003906 6.421875 C 13.039062 6.367188 13.074219 6.316406 13.109375 6.261719 C 13.128906 6.234375 13.144531 6.203125 13.164062 6.175781 C 13.171875 6.164062 13.179688 6.152344 13.1875 6.140625 C 13.191406 6.136719 13.195312 6.128906 13.199219 6.125 C 13.234375 6.070312 13.234375 6.070312 13.246094 6.054688 C 13.253906 6.042969 13.261719 6.03125 13.269531 6.019531 C 13.289062 5.988281 13.308594 5.960938 13.324219 5.929688 C 13.363281 5.875 13.398438 5.820312 13.433594 5.765625 C 13.449219 5.742188 13.46875 5.714844 13.484375 5.6875 C 13.492188 5.675781 13.5 5.664062 13.507812 5.652344 C 13.519531 5.636719 13.53125 5.617188 13.542969 5.601562 C 13.546875 5.59375 13.550781 5.589844 13.550781 5.585938 C 13.597656 5.515625 13.597656 5.515625 13.617188 5.507812 C 13.621094 5.507812 13.625 5.507812 13.628906 5.507812 C 13.632812 5.507812 13.636719 5.507812 13.640625 5.507812 C 13.675781 5.519531 13.695312 5.5625 13.710938 5.589844 C 13.738281 5.636719 13.761719 5.679688 13.789062 5.71875 C 13.832031 5.785156 13.871094 5.847656 13.910156 5.910156 C 13.929688 5.941406 13.945312 5.972656 13.964844 6 C 13.972656 6.011719 13.980469 6.027344 13.988281 6.039062 C 13.992188 6.042969 13.996094 6.050781 14 6.054688 C 14.207031 6.394531 14.207031 6.394531 14.21875 6.414062 C 14.226562 6.425781 14.234375 6.4375 14.242188 6.449219 C 14.261719 6.480469 14.277344 6.507812 14.296875 6.539062 C 14.335938 6.601562 14.375 6.664062 14.414062 6.726562 C 14.457031 6.796875 14.5 6.867188 14.542969 6.933594 C 14.5625 6.964844 14.578125 6.992188 14.597656 7.023438 C 14.605469 7.035156 14.613281 7.046875 14.621094 7.058594 C 14.625 7.066406 14.628906 7.070312 14.632812 7.078125 C 14.753906 7.273438 14.753906 7.273438 14.765625 7.292969 C 14.773438 7.304688 14.78125 7.316406 14.785156 7.328125 C 14.804688 7.359375 14.824219 7.386719 14.839844 7.417969 C 14.878906 7.480469 14.921875 7.542969 14.960938 7.605469 C 15.003906 7.675781 15.046875 7.742188 15.085938 7.8125 C 15.101562 7.835938 15.117188 7.859375 15.132812 7.882812 C 15.144531 7.902344 15.152344 7.921875 15.164062 7.9375 C 15.183594 7.96875 15.203125 8 15.222656 8.027344 C 15.230469 8.046875 15.242188 8.066406 15.253906 8.082031 C 15.269531 8.105469 15.28125 8.128906 15.296875 8.152344 C 15.304688 8.164062 15.3125 8.171875 15.316406 8.183594 C 15.320312 8.1875 15.324219 8.195312 15.328125 8.199219 C 15.394531 8.304688 15.421875 8.414062 15.398438 8.542969 C 15.375 8.628906 15.320312 8.699219 15.269531 8.773438 C 15.25 8.796875 15.234375 8.820312 15.214844 8.847656 C 15.207031 8.855469 15.203125 8.867188 15.195312 8.875 C 15.191406 8.882812 15.191406 8.882812 15.183594 8.890625 C 14.742188 9.519531 14.742188 9.519531 14.730469 9.535156 C 14.726562 9.542969 14.71875 9.554688 14.710938 9.5625 C 14.695312 9.589844 14.675781 9.613281 14.660156 9.636719 C 14.628906 9.683594 14.597656 9.726562 14.566406 9.769531 C 14.53125 9.820312 14.496094 9.867188 14.464844 9.917969 C 14.445312 9.941406 14.429688 9.96875 14.410156 9.992188 C 14.40625 10 14.398438 10.011719 14.390625 10.019531 C 14.386719 10.027344 14.386719 10.027344 14.378906 10.035156 C 14.101562 10.429688 14.101562 10.429688 14.09375 10.445312 C 14.085938 10.457031 14.078125 10.464844 14.070312 10.476562 C 14.054688 10.5 14.039062 10.523438 14.019531 10.550781 C 13.988281 10.59375 13.957031 10.636719 13.925781 10.683594 C 13.894531 10.730469 13.859375 10.78125 13.824219 10.828125 C 13.804688 10.855469 13.789062 10.878906 13.773438 10.902344 C 13.765625 10.914062 13.757812 10.921875 13.75 10.933594 C 13.746094 10.941406 13.746094 10.941406 13.742188 10.945312 C 13.546875 11.226562 13.546875 11.226562 13.535156 11.238281 C 13.527344 11.25 13.519531 11.257812 13.515625 11.269531 C 13.496094 11.292969 13.480469 11.320312 13.460938 11.34375 C 13.429688 11.386719 13.402344 11.433594 13.371094 11.476562 C 13.335938 11.523438 13.300781 11.574219 13.265625 11.625 C 13.25 11.648438 13.230469 11.671875 13.214844 11.699219 C 13.207031 11.707031 13.199219 11.71875 13.195312 11.726562 C 13.1875 11.734375 13.1875 11.734375 13.183594 11.742188 C 12.988281 12.019531 12.988281 12.019531 12.976562 12.035156 C 12.972656 12.042969 12.964844 12.054688 12.957031 12.0625 C 12.941406 12.089844 12.921875 12.113281 12.90625 12.136719 C 12.875 12.183594 12.84375 12.226562 12.8125 12.269531 C 12.777344 12.320312 12.742188 12.367188 12.707031 12.417969 C 12.691406 12.441406 12.675781 12.46875 12.65625 12.492188 C 12.648438 12.5 12.644531 12.511719 12.636719 12.519531 C 12.632812 12.527344 12.628906 12.53125 12.625 12.535156 C 12.429688 12.8125 12.429688 12.8125 12.421875 12.828125 C 12.414062 12.839844 12.40625 12.847656 12.398438 12.859375 C 12.382812 12.882812 12.363281 12.90625 12.347656 12.933594 C 12.316406 12.976562 12.285156 13.019531 12.253906 13.0625 C 12.222656 13.113281 12.1875 13.164062 12.152344 13.210938 C 12.132812 13.242188 12.109375 13.269531 12.089844 13.300781 C 12.070312 13.324219 12.054688 13.351562 12.039062 13.375 C 12.019531 13.398438 12.003906 13.421875 11.984375 13.449219 C 11.976562 13.460938 11.96875 13.472656 11.957031 13.484375 C 11.953125 13.492188 11.949219 13.5 11.941406 13.507812 C 11.9375 13.515625 11.933594 13.519531 11.929688 13.527344 C 11.917969 13.550781 11.910156 13.566406 11.914062 13.589844 C 11.921875 13.617188 11.929688 13.640625 11.941406 13.667969 C 11.945312 13.675781 11.949219 13.679688 11.949219 13.6875 C 11.960938 13.710938 11.972656 13.734375 11.980469 13.757812 C 11.988281 13.773438 11.992188 13.789062 12 13.804688 C 12.011719 13.828125 12.019531 13.851562 12.03125 13.875 C 12.046875 13.914062 12.0625 13.953125 12.078125 13.992188 C 12.082031 14 12.085938 14.007812 12.085938 14.015625 C 12.09375 14.03125 12.097656 14.042969 12.105469 14.058594 C 12.109375 14.070312 12.109375 14.070312 12.113281 14.078125 C 12.117188 14.089844 12.117188 14.089844 12.121094 14.097656 C 12.128906 14.113281 12.136719 14.121094 12.152344 14.132812 C 12.171875 14.136719 12.171875 14.136719 12.195312 14.132812 C 12.199219 14.132812 12.203125 14.132812 12.207031 14.132812 C 12.222656 14.136719 12.234375 14.136719 12.25 14.136719 C 12.257812 14.136719 12.269531 14.136719 12.277344 14.136719 C 12.304688 14.136719 12.332031 14.136719 12.359375 14.136719 C 12.375 14.136719 12.390625 14.136719 12.410156 14.136719 C 12.464844 14.136719 12.523438 14.136719 12.582031 14.136719 C 12.636719 14.136719 12.691406 14.136719 12.746094 14.136719 C 12.792969 14.136719 12.839844 14.136719 12.886719 14.136719 C 12.914062 14.136719 12.941406 14.136719 12.96875 14.136719 C 12.996094 14.136719 13.023438 14.136719 13.050781 14.136719 C 13.058594 14.136719 13.066406 14.136719 13.078125 14.136719 C 13.128906 14.140625 13.128906 14.140625 13.175781 14.121094 C 13.1875 14.109375 13.195312 14.09375 13.203125 14.078125 C 13.210938 14.070312 13.21875 14.0625 13.222656 14.054688 C 13.230469 14.046875 13.234375 14.039062 13.242188 14.027344 C 13.246094 14.019531 13.253906 14.007812 13.261719 14 C 13.265625 13.996094 13.265625 13.988281 13.269531 13.984375 C 13.289062 13.960938 13.304688 13.933594 13.320312 13.910156 C 13.324219 13.90625 13.328125 13.902344 13.332031 13.894531 C 13.339844 13.886719 13.347656 13.875 13.351562 13.867188 C 13.371094 13.84375 13.386719 13.816406 13.40625 13.792969 C 13.425781 13.765625 13.445312 13.734375 13.46875 13.703125 C 13.5 13.65625 13.535156 13.609375 13.566406 13.5625 C 13.59375 13.523438 13.617188 13.488281 13.644531 13.453125 C 13.664062 13.421875 13.683594 13.394531 13.707031 13.363281 C 13.734375 13.324219 13.761719 13.285156 13.789062 13.246094 C 13.808594 13.214844 13.832031 13.183594 13.851562 13.15625 C 13.875 13.121094 13.898438 13.085938 13.921875 13.054688 C 13.925781 13.046875 13.929688 13.042969 13.933594 13.039062 C 13.949219 13.011719 13.96875 12.988281 13.984375 12.964844 C 14.019531 12.914062 14.050781 12.867188 14.085938 12.820312 C 14.121094 12.765625 14.160156 12.714844 14.195312 12.664062 C 14.210938 12.636719 14.230469 12.613281 14.246094 12.589844 C 14.269531 12.558594 14.289062 12.53125 14.308594 12.5 C 14.339844 12.457031 14.371094 12.410156 14.402344 12.367188 C 14.425781 12.332031 14.449219 12.300781 14.472656 12.265625 C 14.476562 12.261719 14.480469 12.253906 14.484375 12.25 C 14.5 12.226562 14.519531 12.199219 14.535156 12.175781 C 14.570312 12.128906 14.605469 12.082031 14.636719 12.03125 C 14.671875 11.980469 14.710938 11.925781 14.746094 11.875 C 14.761719 11.851562 14.78125 11.824219 14.796875 11.800781 C 14.820312 11.773438 14.839844 11.742188 14.859375 11.710938 C 14.890625 11.667969 14.921875 11.625 14.953125 11.582031 C 14.976562 11.546875 15 11.511719 15.023438 11.476562 C 15.027344 11.472656 15.03125 11.46875 15.035156 11.460938 C 15.050781 11.4375 15.070312 11.414062 15.085938 11.386719 C 15.121094 11.339844 15.15625 11.292969 15.1875 11.246094 C 15.222656 11.191406 15.261719 11.140625 15.296875 11.085938 C 15.316406 11.0625 15.332031 11.039062 15.347656 11.015625 C 15.371094 10.984375 15.390625 10.953125 15.410156 10.925781 C 15.441406 10.882812 15.472656 10.835938 15.503906 10.792969 C 15.527344 10.757812 15.550781 10.722656 15.574219 10.691406 C 15.578125 10.683594 15.582031 10.679688 15.585938 10.675781 C 15.605469 10.648438 15.621094 10.625 15.640625 10.601562 C 15.671875 10.550781 15.707031 10.503906 15.738281 10.457031 C 15.773438 10.40625 15.8125 10.351562 15.847656 10.300781 C 15.867188 10.273438 15.882812 10.25 15.898438 10.226562 C 15.921875 10.195312 15.941406 10.167969 15.960938 10.136719 C 15.996094 10.089844 16.03125 10.042969 16.0625 9.992188 C 16.085938 9.957031 16.113281 9.921875 16.136719 9.886719 C 16.160156 9.855469 16.179688 9.828125 16.199219 9.796875 C 16.222656 9.761719 16.25 9.726562 16.273438 9.695312 C 16.277344 9.6875 16.277344 9.683594 16.28125 9.679688 C 16.300781 9.652344 16.316406 9.628906 16.335938 9.605469 C 16.367188 9.558594 16.402344 9.507812 16.433594 9.460938 C 16.472656 9.410156 16.507812 9.355469 16.546875 9.304688 C 16.5625 9.277344 16.578125 9.253906 16.597656 9.230469 C 16.617188 9.199219 16.636719 9.171875 16.660156 9.140625 C 16.691406 9.097656 16.722656 9.054688 16.75 9.007812 C 16.777344 8.976562 16.800781 8.941406 16.824219 8.90625 C 16.828125 8.898438 16.828125 8.898438 16.832031 8.890625 C 16.851562 8.867188 16.871094 8.839844 16.886719 8.816406 C 17.011719 8.640625 17.011719 8.640625 17.035156 8.429688 C 17.015625 8.324219 16.957031 8.242188 16.902344 8.152344 C 16.882812 8.125 16.867188 8.09375 16.847656 8.066406 C 16.84375 8.058594 16.839844 8.054688 16.835938 8.046875 C 16.828125 8.035156 16.820312 8.023438 16.8125 8.011719 C 16.796875 7.980469 16.777344 7.953125 16.757812 7.921875 C 16.75 7.910156 16.742188 7.898438 16.734375 7.886719 C 16.730469 7.878906 16.730469 7.875 16.726562 7.867188 C 16.691406 7.816406 16.691406 7.816406 16.679688 7.796875 C 16.671875 7.785156 16.664062 7.773438 16.660156 7.761719 C 16.640625 7.730469 16.621094 7.703125 16.601562 7.671875 C 16.5625 7.609375 16.523438 7.546875 16.484375 7.484375 C 16.441406 7.414062 16.398438 7.34375 16.355469 7.277344 C 16.339844 7.246094 16.320312 7.214844 16.300781 7.1875 C 16.28125 7.152344 16.257812 7.113281 16.234375 7.078125 C 16.195312 7.015625 16.15625 6.953125 16.117188 6.890625 C 16.074219 6.820312 16.03125 6.753906 15.988281 6.683594 C 15.972656 6.652344 15.953125 6.625 15.933594 6.59375 C 15.925781 6.582031 15.917969 6.570312 15.914062 6.558594 C 15.910156 6.550781 15.90625 6.546875 15.902344 6.539062 C 15.867188 6.488281 15.867188 6.488281 15.855469 6.46875 C 15.851562 6.457031 15.84375 6.445312 15.835938 6.433594 C 15.816406 6.402344 15.796875 6.375 15.78125 6.34375 C 15.742188 6.28125 15.703125 6.21875 15.664062 6.15625 C 15.621094 6.085938 15.578125 6.015625 15.535156 5.949219 C 15.515625 5.917969 15.496094 5.886719 15.480469 5.859375 C 15.457031 5.824219 15.433594 5.789062 15.414062 5.75 C 15.375 5.6875 15.335938 5.625 15.296875 5.5625 C 15.253906 5.492188 15.210938 5.425781 15.167969 5.355469 C 15.148438 5.324219 15.128906 5.296875 15.113281 5.265625 C 15.105469 5.253906 15.097656 5.242188 15.089844 5.230469 C 15.085938 5.222656 15.082031 5.21875 15.078125 5.210938 C 15.042969 5.160156 15.042969 5.160156 15.035156 5.140625 C 15.027344 5.128906 15.019531 5.117188 15.011719 5.105469 C 14.992188 5.074219 14.976562 5.046875 14.957031 5.015625 C 14.917969 4.953125 14.878906 4.890625 14.839844 4.828125 C 14.796875 4.757812 14.753906 4.6875 14.710938 4.621094 C 14.691406 4.589844 14.671875 4.558594 14.65625 4.53125 C 14.632812 4.496094 14.609375 4.460938 14.589844 4.421875 C 14.550781 4.359375 14.511719 4.296875 14.472656 4.234375 C 14.429688 4.164062 14.386719 4.097656 14.34375 4.027344 C 14.324219 3.996094 14.304688 3.96875 14.289062 3.9375 C 14.28125 3.925781 14.273438 3.914062 14.265625 3.902344 C 14.261719 3.894531 14.257812 3.890625 14.253906 3.882812 C 14.222656 3.832031 14.222656 3.832031 14.210938 3.8125 C 14.203125 3.800781 14.195312 3.789062 14.1875 3.777344 C 14.167969 3.746094 14.152344 3.71875 14.132812 3.6875 C 14.089844 3.617188 14.046875 3.546875 14.003906 3.476562 C 13.972656 3.425781 13.9375 3.375 13.90625 3.324219 C 13.890625 3.296875 13.875 3.269531 13.855469 3.242188 C 13.851562 3.234375 13.847656 3.230469 13.847656 3.226562 C 13.839844 3.214844 13.832031 3.207031 13.828125 3.199219 C 13.816406 3.179688 13.808594 3.164062 13.800781 3.144531 C 13.789062 3.136719 13.789062 3.136719 13.773438 3.132812 C 13.769531 3.128906 13.765625 3.125 13.761719 3.125 C 13.742188 3.117188 13.730469 3.117188 13.710938 3.113281 C 13.703125 3.113281 13.699219 3.113281 13.691406 3.113281 C 13.640625 3.125 13.609375 3.164062 13.582031 3.207031 C 13.574219 3.21875 13.566406 3.230469 13.558594 3.242188 C 13.554688 3.246094 13.550781 3.253906 13.546875 3.257812 C 13.53125 3.28125 13.511719 3.304688 13.496094 3.328125 C 13.457031 3.378906 13.417969 3.433594 13.382812 3.484375 C 13.363281 3.511719 13.34375 3.539062 13.324219 3.5625 C 13.316406 3.574219 13.3125 3.585938 13.304688 3.59375 C 12.816406 4.273438 12.816406 4.273438 12.804688 4.289062 C 12.796875 4.300781 12.789062 4.3125 12.78125 4.320312 C 12.765625 4.347656 12.746094 4.375 12.726562 4.398438 C 12.691406 4.449219 12.652344 4.5 12.617188 4.550781 C 12.589844 4.59375 12.5625 4.632812 12.53125 4.671875 C 12.472656 4.75 12.417969 4.832031 12.359375 4.910156 C 12.335938 4.945312 12.308594 4.984375 12.285156 5.019531 C 12.261719 5.050781 12.238281 5.082031 12.214844 5.117188 C 12.1875 5.152344 12.160156 5.191406 12.132812 5.226562 C 12.105469 5.269531 12.074219 5.308594 12.046875 5.351562 C 12.011719 5.402344 11.972656 5.453125 11.9375 5.503906 C 11.917969 5.53125 11.898438 5.554688 11.882812 5.582031 C 11.875 5.59375 11.867188 5.601562 11.859375 5.613281 C 11.855469 5.617188 11.851562 5.621094 11.847656 5.628906 C 11.726562 5.796875 11.726562 5.796875 11.714844 5.8125 C 11.707031 5.824219 11.699219 5.835938 11.691406 5.84375 C 11.675781 5.871094 11.65625 5.894531 11.636719 5.921875 C 11.601562 5.972656 11.566406 6.023438 11.53125 6.074219 C 11.484375 6.140625 11.4375 6.207031 11.390625 6.269531 C 11.347656 6.328125 11.308594 6.382812 11.269531 6.4375 C 11.222656 6.503906 11.175781 6.570312 11.128906 6.636719 C 11.089844 6.691406 11.050781 6.746094 11.011719 6.800781 C 10.964844 6.867188 10.917969 6.933594 10.871094 7 C 10.828125 7.058594 10.78125 7.121094 10.742188 7.179688 C 10.714844 7.21875 10.691406 7.253906 10.664062 7.289062 C 10.621094 7.347656 10.582031 7.40625 10.539062 7.464844 C 10.492188 7.53125 10.445312 7.597656 10.402344 7.660156 C 10.367188 7.710938 10.332031 7.761719 10.296875 7.808594 C 10.285156 7.824219 10.273438 7.839844 10.265625 7.851562 C 10.21875 7.917969 10.171875 7.988281 10.125 8.054688 C 10.105469 8.082031 10.089844 8.109375 10.070312 8.136719 C 10.0625 8.148438 10.054688 8.160156 10.046875 8.167969 C 9.945312 8.320312 9.839844 8.472656 9.738281 8.625 C 9.734375 8.628906 9.730469 8.636719 9.726562 8.640625 C 9.71875 8.652344 9.710938 8.664062 9.703125 8.671875 C 9.683594 8.703125 9.667969 8.730469 9.648438 8.757812 C 9.644531 8.761719 9.640625 8.769531 9.636719 8.773438 C 9.628906 8.785156 9.621094 8.796875 9.613281 8.808594 C 9.601562 8.824219 9.59375 8.835938 9.582031 8.851562 C 9.578125 8.859375 9.574219 8.863281 9.570312 8.871094 C 9.566406 8.875 9.5625 8.878906 9.558594 8.886719 C 9.554688 8.890625 9.550781 8.894531 9.550781 8.898438 C 9.53125 8.917969 9.515625 8.917969 9.496094 8.921875 C 9.46875 8.914062 9.453125 8.902344 9.4375 8.882812 C 9.433594 8.878906 9.429688 8.875 9.425781 8.867188 C 9.421875 8.863281 9.417969 8.855469 9.414062 8.847656 C 9.410156 8.839844 9.402344 8.832031 9.398438 8.828125 C 9.394531 8.820312 9.386719 8.8125 9.382812 8.804688 C 9.371094 8.785156 9.359375 8.769531 9.347656 8.753906 C 9.289062 8.660156 9.222656 8.566406 9.160156 8.476562 C 9.152344 8.460938 9.140625 8.449219 9.132812 8.433594 C 9.097656 8.382812 9.0625 8.332031 9.023438 8.277344 C 9 8.246094 8.976562 8.210938 8.957031 8.179688 C 8.914062 8.121094 8.875 8.0625 8.835938 8.007812 C 8.792969 7.945312 8.746094 7.882812 8.707031 7.820312 C 8.671875 7.773438 8.636719 7.722656 8.605469 7.675781 C 8.585938 7.652344 8.570312 7.628906 8.554688 7.601562 C 8.550781 7.597656 8.546875 7.59375 8.542969 7.589844 C 8.527344 7.5625 8.507812 7.539062 8.492188 7.515625 C 8.457031 7.464844 8.421875 7.414062 8.382812 7.363281 C 8.355469 7.320312 8.324219 7.277344 8.292969 7.234375 C 8.242188 7.164062 8.191406 7.089844 8.140625 7.019531 C 8.097656 6.957031 8.054688 6.898438 8.015625 6.839844 C 7.972656 6.78125 7.929688 6.71875 7.886719 6.660156 C 7.859375 6.621094 7.828125 6.582031 7.800781 6.539062 C 7.777344 6.503906 7.753906 6.46875 7.726562 6.433594 C 7.695312 6.390625 7.664062 6.34375 7.632812 6.300781 C 7.605469 6.265625 7.582031 6.230469 7.554688 6.195312 C 7.527344 6.152344 7.5 6.113281 7.46875 6.074219 C 7.425781 6.011719 7.382812 5.953125 7.339844 5.890625 C 7.292969 5.824219 7.246094 5.761719 7.199219 5.695312 C 7.160156 5.636719 7.121094 5.582031 7.082031 5.527344 C 7.035156 5.464844 6.992188 5.40625 6.949219 5.34375 C 6.925781 5.304688 6.898438 5.269531 6.871094 5.234375 C 6.839844 5.191406 6.8125 5.152344 6.78125 5.109375 C 6.746094 5.058594 6.710938 5.007812 6.675781 4.957031 C 6.65625 4.929688 6.636719 4.90625 6.617188 4.878906 C 6.609375 4.867188 6.605469 4.859375 6.597656 4.847656 C 6.523438 4.746094 6.449219 4.640625 6.375 4.539062 C 6.371094 4.535156 6.367188 4.527344 6.363281 4.523438 C 6.355469 4.511719 6.347656 4.503906 6.339844 4.492188 C 6.324219 4.464844 6.304688 4.441406 6.285156 4.414062 C 6.25 4.363281 6.214844 4.3125 6.175781 4.261719 C 6.148438 4.222656 6.121094 4.179688 6.089844 4.140625 C 6.054688 4.089844 6.019531 4.042969 5.984375 3.992188 C 5.964844 3.96875 5.945312 3.941406 5.929688 3.914062 C 5.921875 3.90625 5.914062 3.894531 5.90625 3.882812 C 5.902344 3.878906 5.898438 3.875 5.894531 3.867188 C 5.59375 3.453125 5.59375 3.453125 5.585938 3.4375 C 5.578125 3.425781 5.570312 3.414062 5.5625 3.40625 C 5.542969 3.378906 5.523438 3.351562 5.503906 3.328125 C 5.488281 3.300781 5.46875 3.273438 5.449219 3.25 C 5.441406 3.234375 5.433594 3.222656 5.421875 3.210938 C 5.417969 3.203125 5.414062 3.195312 5.410156 3.191406 C 5.402344 3.183594 5.398438 3.179688 5.394531 3.171875 C 5.371094 3.144531 5.347656 3.125 5.3125 3.117188 C 5.273438 3.117188 5.242188 3.121094 5.210938 3.152344 C 5.179688 3.191406 5.15625 3.238281 5.128906 3.28125 C 5.121094 3.292969 5.113281 3.304688 5.105469 3.320312 C 5.097656 3.328125 5.097656 3.328125 5.089844 3.339844 C 5.070312 3.371094 5.050781 3.40625 5.027344 3.441406 C 4.980469 3.515625 4.9375 3.589844 4.890625 3.664062 C 4.839844 3.746094 4.789062 3.828125 4.738281 3.910156 C 4.695312 3.976562 4.652344 4.046875 4.609375 4.113281 C 4.558594 4.195312 4.507812 4.277344 4.457031 4.359375 C 4.417969 4.425781 4.375 4.496094 4.332031 4.5625 C 4.28125 4.644531 4.230469 4.726562 4.179688 4.808594 C 4.136719 4.875 4.09375 4.945312 4.054688 5.011719 C 4.003906 5.09375 3.953125 5.175781 3.902344 5.257812 C 3.875 5.300781 3.847656 5.34375 3.820312 5.390625 C 3.789062 5.441406 3.753906 5.492188 3.722656 5.542969 C 3.675781 5.617188 3.632812 5.691406 3.585938 5.765625 C 3.535156 5.847656 3.484375 5.929688 3.433594 6.011719 C 3.390625 6.082031 3.347656 6.148438 3.304688 6.214844 C 3.253906 6.296875 3.203125 6.378906 3.152344 6.460938 C 3.113281 6.53125 3.070312 6.597656 3.027344 6.664062 C 2.976562 6.746094 2.925781 6.828125 2.875 6.910156 C 2.832031 6.980469 2.789062 7.046875 2.75 7.113281 C 2.699219 7.195312 2.648438 7.277344 2.597656 7.359375 C 2.554688 7.429688 2.511719 7.496094 2.46875 7.5625 C 2.417969 7.644531 2.367188 7.726562 2.316406 7.808594 C 2.277344 7.871094 2.242188 7.933594 2.203125 7.996094 C 2.1875 8.019531 2.171875 8.042969 2.15625 8.066406 C 2.152344 8.078125 2.144531 8.089844 2.136719 8.101562 C 2.117188 8.132812 2.097656 8.164062 2.078125 8.195312 C 2.074219 8.199219 2.070312 8.207031 2.066406 8.214844 C 2.058594 8.226562 2.050781 8.238281 2.042969 8.25 C 1.984375 8.347656 1.953125 8.449219 1.976562 8.5625 C 2 8.652344 2.050781 8.71875 2.101562 8.789062 C 2.121094 8.816406 2.140625 8.84375 2.160156 8.871094 C 2.164062 8.878906 2.164062 8.878906 2.171875 8.886719 C 2.199219 8.925781 2.226562 8.964844 2.253906 9.003906 C 2.292969 9.054688 2.328125 9.105469 2.363281 9.15625 C 2.382812 9.183594 2.402344 9.207031 2.417969 9.234375 C 2.425781 9.242188 2.433594 9.253906 2.441406 9.265625 C 2.457031 9.285156 2.472656 9.304688 2.484375 9.328125 C 2.488281 9.332031 2.492188 9.335938 2.496094 9.339844 C 2.503906 9.351562 2.511719 9.363281 2.519531 9.371094 C 2.539062 9.398438 2.554688 9.425781 2.574219 9.449219 C 2.613281 9.503906 2.652344 9.558594 2.691406 9.617188 C 2.726562 9.667969 2.765625 9.71875 2.800781 9.769531 C 2.820312 9.792969 2.835938 9.820312 2.855469 9.84375 C 2.863281 9.855469 2.871094 9.867188 2.878906 9.875 C 2.894531 9.898438 2.90625 9.917969 2.921875 9.9375 C 2.925781 9.941406 2.929688 9.949219 2.933594 9.953125 C 2.941406 9.964844 2.949219 9.972656 2.957031 9.984375 C 2.972656 10.011719 2.992188 10.035156 3.011719 10.0625 C 3.050781 10.117188 3.089844 10.171875 3.128906 10.226562 C 3.164062 10.277344 3.203125 10.328125 3.238281 10.378906 C 3.261719 10.410156 3.28125 10.441406 3.304688 10.472656 C 3.324219 10.5 3.339844 10.523438 3.359375 10.550781 C 3.398438 10.605469 3.4375 10.660156 3.476562 10.714844 C 3.511719 10.765625 3.550781 10.816406 3.585938 10.867188 C 3.605469 10.894531 3.625 10.917969 3.640625 10.945312 C 3.648438 10.957031 3.65625 10.964844 3.664062 10.976562 C 3.679688 10.996094 3.695312 11.019531 3.707031 11.039062 C 3.710938 11.042969 3.714844 11.046875 3.71875 11.054688 C 3.726562 11.0625 3.734375 11.074219 3.742188 11.085938 C 3.761719 11.109375 3.777344 11.136719 3.796875 11.164062 C 3.835938 11.21875 3.875 11.273438 3.914062 11.328125 C 3.949219 11.378906 3.988281 11.429688 4.023438 11.480469 C 4.042969 11.503906 4.058594 11.53125 4.078125 11.558594 C 4.085938 11.566406 4.09375 11.578125 4.101562 11.589844 C 4.117188 11.609375 4.128906 11.628906 4.144531 11.648438 C 4.148438 11.65625 4.152344 11.660156 4.15625 11.664062 C 4.164062 11.675781 4.171875 11.6875 4.179688 11.695312 C 4.195312 11.722656 4.214844 11.75 4.234375 11.773438 C 4.273438 11.828125 4.3125 11.882812 4.351562 11.941406 C 4.386719 11.992188 4.421875 12.042969 4.460938 12.09375 C 4.480469 12.121094 4.503906 12.152344 4.527344 12.183594 C 4.546875 12.210938 4.5625 12.238281 4.582031 12.261719 C 4.621094 12.316406 4.660156 12.371094 4.699219 12.429688 C 4.734375 12.480469 4.773438 12.53125 4.808594 12.578125 C 4.828125 12.605469 4.84375 12.632812 4.863281 12.65625 C 4.871094 12.667969 4.878906 12.679688 4.886719 12.6875 C 4.902344 12.707031 4.914062 12.730469 4.929688 12.75 C 4.933594 12.753906 4.9375 12.761719 4.941406 12.765625 C 4.949219 12.777344 4.957031 12.785156 4.964844 12.796875 C 4.980469 12.824219 5 12.847656 5.019531 12.875 C 5.058594 12.929688 5.097656 12.984375 5.136719 13.039062 C 5.171875 13.089844 5.210938 13.140625 5.246094 13.191406 C 5.265625 13.21875 5.28125 13.242188 5.300781 13.269531 C 5.308594 13.28125 5.316406 13.289062 5.324219 13.300781 C 5.339844 13.320312 5.351562 13.339844 5.367188 13.363281 C 5.371094 13.367188 5.375 13.371094 5.378906 13.378906 C 5.386719 13.386719 5.394531 13.398438 5.402344 13.410156 C 5.417969 13.433594 5.4375 13.460938 5.457031 13.484375 C 5.496094 13.539062 5.535156 13.597656 5.574219 13.652344 C 5.609375 13.703125 5.644531 13.753906 5.683594 13.804688 C 5.699219 13.824219 5.710938 13.84375 5.726562 13.867188 C 5.734375 13.875 5.742188 13.886719 5.75 13.898438 C 5.769531 13.921875 5.785156 13.949219 5.804688 13.976562 C 5.808594 13.980469 5.8125 13.988281 5.816406 13.992188 C 5.824219 14.003906 5.832031 14.011719 5.839844 14.023438 C 5.851562 14.039062 5.859375 14.050781 5.871094 14.066406 C 5.875 14.070312 5.878906 14.078125 5.882812 14.082031 C 5.886719 14.089844 5.890625 14.09375 5.894531 14.097656 C 5.898438 14.105469 5.902344 14.109375 5.90625 14.113281 C 5.914062 14.128906 5.914062 14.128906 5.933594 14.132812 C 5.949219 14.132812 5.960938 14.132812 5.976562 14.132812 C 5.980469 14.132812 5.984375 14.132812 5.988281 14.132812 C 6 14.132812 6.015625 14.132812 6.027344 14.132812 C 6.039062 14.132812 6.046875 14.132812 6.058594 14.132812 C 6.085938 14.132812 6.113281 14.132812 6.140625 14.132812 C 6.167969 14.132812 6.195312 14.132812 6.222656 14.132812 C 6.277344 14.132812 6.332031 14.132812 6.382812 14.132812 C 6.445312 14.132812 6.503906 14.132812 6.566406 14.132812 C 6.691406 14.132812 6.816406 14.132812 6.941406 14.132812 C 6.941406 14.128906 6.945312 14.125 6.945312 14.121094 C 6.964844 14.082031 6.980469 14.042969 6.996094 14.003906 C 7.003906 13.984375 7.011719 13.964844 7.019531 13.941406 C 7.054688 13.859375 7.09375 13.773438 7.128906 13.691406 C 7.128906 13.6875 7.128906 13.683594 7.132812 13.679688 C 7.136719 13.671875 7.140625 13.664062 7.144531 13.65625 C 7.167969 13.597656 7.167969 13.597656 7.164062 13.539062 C 7.152344 13.519531 7.140625 13.503906 7.125 13.488281 C 7.117188 13.476562 7.109375 13.46875 7.101562 13.457031 C 7.097656 13.453125 7.09375 13.449219 7.089844 13.441406 C 7.078125 13.421875 7.0625 13.402344 7.050781 13.382812 C 6.996094 13.304688 6.9375 13.226562 6.882812 13.148438 C 6.84375 13.101562 6.808594 13.050781 6.773438 13 C 6.757812 12.976562 6.738281 12.949219 6.71875 12.925781 C 6.710938 12.914062 6.703125 12.902344 6.699219 12.894531 C 6.695312 12.886719 6.691406 12.882812 6.6875 12.878906 C 6.320312 12.367188 5.953125 11.859375 4.691406 10.09375 C 4.683594 10.085938 4.675781 10.074219 4.667969 10.0625 C 4.652344 10.039062 4.632812 10.011719 4.613281 9.984375 C 4.578125 9.9375 4.542969 9.890625 4.507812 9.84375 C 4.46875 9.789062 4.433594 9.734375 4.394531 9.683594 C 4.375 9.65625 4.355469 9.628906 4.339844 9.605469 C 4.332031 9.59375 4.324219 9.582031 4.316406 9.574219 C 4.3125 9.566406 4.3125 9.566406 4.304688 9.558594 C 4.144531 9.335938 3.988281 9.113281 3.828125 8.894531 C 3.824219 8.886719 3.820312 8.882812 3.816406 8.878906 C 3.808594 8.867188 3.800781 8.855469 3.796875 8.847656 C 3.777344 8.820312 3.757812 8.792969 3.738281 8.769531 C 3.734375 8.761719 3.730469 8.757812 3.726562 8.75 C 3.71875 8.742188 3.710938 8.730469 3.703125 8.71875 C 3.628906 8.617188 3.582031 8.511719 3.601562 8.382812 C 3.617188 8.277344 3.675781 8.195312 3.730469 8.109375 C 3.75 8.078125 3.769531 8.050781 3.785156 8.023438 C 3.816406 7.96875 3.851562 7.917969 3.882812 7.867188 C 3.925781 7.796875 3.96875 7.730469 4.011719 7.660156 C 4.027344 7.628906 4.046875 7.601562 4.066406 7.570312 C 4.074219 7.558594 4.082031 7.546875 4.089844 7.535156 C 4.160156 7.414062 4.234375 7.296875 4.308594 7.175781 C 4.3125 7.171875 4.316406 7.164062 4.320312 7.160156 C 4.328125 7.148438 4.335938 7.136719 4.34375 7.121094 C 4.363281 7.09375 4.378906 7.0625 4.398438 7.035156 C 4.441406 6.964844 4.484375 6.894531 4.527344 6.824219 C 4.566406 6.761719 4.605469 6.699219 4.644531 6.636719 C 4.664062 6.609375 4.679688 6.578125 4.699219 6.546875 C 4.707031 6.535156 4.714844 6.523438 4.722656 6.511719 C 4.789062 6.40625 4.789062 6.40625 4.855469 6.296875 C 4.859375 6.292969 4.863281 6.285156 4.867188 6.28125 C 4.871094 6.269531 4.878906 6.257812 4.886719 6.242188 C 4.90625 6.214844 4.925781 6.183594 4.941406 6.15625 C 4.984375 6.085938 5.03125 6.015625 5.074219 5.945312 C 5.101562 5.902344 5.128906 5.855469 5.15625 5.8125 C 5.160156 5.804688 5.160156 5.804688 5.167969 5.792969 C 5.1875 5.765625 5.203125 5.734375 5.222656 5.703125 C 5.332031 5.527344 5.332031 5.527344 5.351562 5.507812 C 5.371094 5.503906 5.371094 5.503906 5.394531 5.507812 C 5.4375 5.539062 5.464844 5.597656 5.496094 5.640625 C 5.515625 5.667969 5.535156 5.699219 5.558594 5.726562 C 5.585938 5.769531 5.617188 5.8125 5.644531 5.855469 C 5.667969 5.890625 5.691406 5.921875 5.714844 5.957031 C 5.746094 6 5.773438 6.039062 5.804688 6.082031 C 5.828125 6.117188 5.851562 6.152344 5.875 6.183594 C 5.902344 6.226562 5.933594 6.269531 5.960938 6.3125 C 5.984375 6.34375 6.007812 6.378906 6.03125 6.410156 C 6.0625 6.453125 6.09375 6.496094 6.121094 6.539062 C 6.144531 6.574219 6.167969 6.605469 6.191406 6.640625 C 6.222656 6.683594 6.25 6.726562 6.28125 6.769531 C 6.296875 6.792969 6.3125 6.8125 6.328125 6.835938 C 6.332031 6.839844 6.332031 6.84375 6.335938 6.847656 C 6.34375 6.855469 6.347656 6.863281 6.355469 6.871094 C 6.363281 6.878906 6.363281 6.878906 6.371094 6.898438 C 6.367188 6.929688 6.34375 6.957031 6.328125 6.980469 C 6.320312 6.988281 6.316406 7 6.308594 7.007812 C 6.304688 7.015625 6.304688 7.015625 6.296875 7.023438 C 6.285156 7.042969 6.269531 7.066406 6.253906 7.085938 C 6.253906 7.089844 6.25 7.097656 6.246094 7.101562 C 6.21875 7.140625 6.195312 7.179688 6.167969 7.21875 C 6.144531 7.253906 6.117188 7.292969 6.09375 7.328125 C 6.070312 7.363281 6.046875 7.398438 6.027344 7.429688 C 6 7.472656 5.96875 7.515625 5.941406 7.558594 C 5.917969 7.589844 5.898438 7.625 5.875 7.660156 C 5.847656 7.699219 5.816406 7.742188 5.789062 7.785156 C 5.765625 7.820312 5.746094 7.851562 5.722656 7.886719 C 5.683594 7.945312 5.644531 8.003906 5.601562 8.066406 C 5.566406 8.121094 5.527344 8.175781 5.488281 8.234375 C 5.472656 8.261719 5.453125 8.289062 5.433594 8.320312 C 5.425781 8.328125 5.421875 8.335938 5.417969 8.34375 C 5.398438 8.367188 5.382812 8.394531 5.367188 8.417969 C 5.359375 8.429688 5.351562 8.441406 5.34375 8.449219 C 5.339844 8.457031 5.339844 8.457031 5.332031 8.464844 C 5.332031 8.472656 5.328125 8.476562 5.324219 8.480469 C 5.320312 8.484375 5.316406 8.492188 5.316406 8.496094 C 5.308594 8.507812 5.300781 8.519531 5.300781 8.535156 C 5.308594 8.550781 5.320312 8.566406 5.332031 8.582031 C 5.332031 8.585938 5.335938 8.589844 5.339844 8.59375 C 5.351562 8.609375 5.359375 8.625 5.371094 8.636719 C 5.378906 8.648438 5.382812 8.65625 5.390625 8.667969 C 5.402344 8.679688 5.410156 8.695312 5.421875 8.710938 C 5.445312 8.746094 5.472656 8.78125 5.496094 8.816406 C 5.523438 8.859375 5.550781 8.898438 5.578125 8.941406 C 5.613281 8.988281 5.648438 9.039062 5.679688 9.085938 C 5.695312 9.105469 5.707031 9.125 5.71875 9.140625 C 5.722656 9.148438 5.726562 9.152344 5.726562 9.15625 C 5.75 9.1875 5.773438 9.222656 5.796875 9.253906 C 5.828125 9.296875 5.855469 9.335938 5.882812 9.378906 C 5.910156 9.417969 5.9375 9.460938 5.964844 9.5 C 5.996094 9.542969 6.027344 9.589844 6.058594 9.632812 C 6.074219 9.65625 6.089844 9.679688 6.105469 9.703125 C 6.125 9.730469 6.144531 9.757812 6.164062 9.785156 C 6.195312 9.832031 6.226562 9.878906 6.257812 9.925781 C 6.292969 9.972656 6.324219 10.019531 6.355469 10.066406 C 6.382812 10.101562 6.40625 10.140625 6.433594 10.175781 C 6.460938 10.214844 6.488281 10.253906 6.515625 10.296875 C 6.542969 10.335938 6.570312 10.378906 6.597656 10.417969 C 6.628906 10.460938 6.660156 10.507812 6.691406 10.550781 C 6.707031 10.574219 6.722656 10.597656 6.738281 10.621094 C 6.757812 10.648438 6.777344 10.675781 6.796875 10.703125 C 6.828125 10.75 6.859375 10.796875 6.894531 10.84375 C 6.925781 10.890625 6.957031 10.9375 6.992188 10.984375 C 7.015625 11.019531 7.039062 11.058594 7.066406 11.09375 C 7.09375 11.132812 7.121094 11.171875 7.148438 11.214844 C 7.175781 11.253906 7.203125 11.296875 7.230469 11.335938 C 7.261719 11.378906 7.292969 11.425781 7.324219 11.46875 C 7.339844 11.492188 7.355469 11.515625 7.371094 11.539062 C 7.390625 11.566406 7.410156 11.59375 7.429688 11.621094 C 7.460938 11.667969 7.492188 11.714844 7.527344 11.761719 C 7.558594 11.808594 7.589844 11.855469 7.625 11.902344 C 7.648438 11.9375 7.671875 11.972656 7.699219 12.011719 C 7.726562 12.050781 7.753906 12.089844 7.78125 12.132812 C 7.808594 12.171875 7.835938 12.214844 7.867188 12.253906 C 7.898438 12.296875 7.925781 12.339844 7.957031 12.386719 C 7.972656 12.410156 7.988281 12.433594 8.003906 12.457031 C 8.023438 12.484375 8.042969 12.511719 8.0625 12.539062 C 8.09375 12.585938 8.125 12.632812 8.160156 12.679688 C 8.191406 12.726562 8.226562 12.773438 8.257812 12.820312 C 8.28125 12.855469 8.308594 12.890625 8.332031 12.929688 C 8.359375 12.96875 8.386719 13.007812 8.414062 13.050781 C 8.441406 13.089844 8.46875 13.132812 8.5 13.171875 C 8.53125 13.214844 8.558594 13.257812 8.589844 13.304688 C 8.601562 13.320312 8.609375 13.332031 8.621094 13.347656 C 8.625 13.351562 8.628906 13.359375 8.632812 13.363281 C 8.636719 13.371094 8.644531 13.382812 8.652344 13.390625 C 8.65625 13.398438 8.664062 13.410156 8.667969 13.417969 C 8.675781 13.425781 8.683594 13.4375 8.691406 13.449219 C 8.707031 13.476562 8.710938 13.507812 8.707031 13.539062 C 8.699219 13.550781 8.695312 13.566406 8.691406 13.578125 C 8.6875 13.582031 8.6875 13.585938 8.683594 13.59375 C 8.679688 13.601562 8.675781 13.613281 8.671875 13.621094 C 8.664062 13.636719 8.65625 13.652344 8.652344 13.667969 C 8.640625 13.691406 8.628906 13.71875 8.621094 13.742188 C 8.605469 13.769531 8.59375 13.800781 8.582031 13.828125 C 8.578125 13.835938 8.578125 13.84375 8.574219 13.847656 C 8.542969 13.914062 8.515625 13.984375 8.488281 14.050781 C 8.484375 14.058594 8.480469 14.0625 8.480469 14.070312 C 8.46875 14.097656 8.457031 14.121094 8.449219 14.148438 C 8.425781 14.195312 8.40625 14.246094 8.382812 14.296875 C 8.363281 14.34375 8.34375 14.394531 8.320312 14.445312 C 8.308594 14.476562 8.292969 14.511719 8.277344 14.542969 C 8.214844 14.691406 8.152344 14.839844 8.09375 14.988281 C 8.085938 15.007812 8.074219 15.027344 8.066406 15.046875 C 8.042969 15.109375 8.015625 15.171875 7.988281 15.234375 C 7.976562 15.265625 7.964844 15.296875 7.953125 15.328125 C 7.945312 15.34375 7.941406 15.359375 7.933594 15.371094 C 7.925781 15.394531 7.917969 15.414062 7.910156 15.433594 C 7.90625 15.441406 7.902344 15.445312 7.902344 15.453125 C 7.882812 15.496094 7.863281 15.523438 7.824219 15.542969 C 7.773438 15.5625 7.722656 15.558594 7.671875 15.558594 C 7.660156 15.558594 7.648438 15.558594 7.640625 15.558594 C 7.609375 15.558594 7.582031 15.558594 7.550781 15.558594 C 7.519531 15.558594 7.488281 15.558594 7.457031 15.558594 C 7.394531 15.558594 7.332031 15.558594 7.269531 15.558594 C 7.21875 15.558594 7.167969 15.558594 7.117188 15.558594 C 7.105469 15.558594 7.105469 15.558594 7.09375 15.558594 C 7.078125 15.558594 7.066406 15.558594 7.050781 15.558594 C 6.914062 15.558594 6.777344 15.558594 6.636719 15.558594 C 6.519531 15.558594 6.402344 15.558594 6.285156 15.558594 C 6.148438 15.558594 6.011719 15.558594 5.875 15.558594 C 5.859375 15.558594 5.84375 15.558594 5.828125 15.558594 C 5.820312 15.558594 5.820312 15.558594 5.808594 15.558594 C 5.757812 15.558594 5.707031 15.558594 5.65625 15.558594 C 5.59375 15.558594 5.53125 15.558594 5.472656 15.558594 C 5.441406 15.558594 5.40625 15.558594 5.375 15.558594 C 5.347656 15.558594 5.320312 15.558594 5.289062 15.558594 C 5.28125 15.558594 5.269531 15.558594 5.257812 15.558594 C 5.121094 15.558594 5.121094 15.558594 5.066406 15.507812 C 5.039062 15.476562 5.015625 15.4375 4.992188 15.402344 C 4.976562 15.378906 4.960938 15.355469 4.945312 15.332031 C 4.945312 15.328125 4.941406 15.324219 4.9375 15.320312 C 4.910156 15.28125 4.882812 15.242188 4.855469 15.203125 C 4.832031 15.171875 4.8125 15.136719 4.789062 15.105469 C 4.75 15.050781 4.714844 15 4.679688 14.945312 C 4.667969 14.933594 4.65625 14.917969 4.648438 14.902344 C 4.613281 14.851562 4.578125 14.804688 4.539062 14.753906 C 4.496094 14.6875 4.449219 14.625 4.402344 14.558594 C 4.351562 14.484375 4.296875 14.410156 4.242188 14.332031 C 4.195312 14.269531 4.148438 14.203125 4.101562 14.136719 C 4.066406 14.085938 4.03125 14.035156 3.996094 13.984375 C 3.976562 13.957031 3.957031 13.933594 3.9375 13.90625 C 3.933594 13.898438 3.925781 13.886719 3.917969 13.875 C 3.519531 13.320312 3.519531 13.320312 3.507812 13.304688 C 3.5 13.292969 3.492188 13.285156 3.484375 13.273438 C 3.464844 13.246094 3.449219 13.222656 3.429688 13.195312 C 3.394531 13.148438 3.359375 13.097656 3.324219 13.050781 C 3.277344 12.988281 3.234375 12.921875 3.1875 12.859375 C 3.148438 12.804688 3.109375 12.753906 3.070312 12.699219 C 3.042969 12.664062 3.015625 12.625 2.988281 12.585938 C 2.984375 12.578125 2.984375 12.578125 2.980469 12.570312 C 2.960938 12.546875 2.941406 12.519531 2.921875 12.492188 C 2.878906 12.433594 2.835938 12.371094 2.789062 12.3125 C 2.765625 12.277344 2.742188 12.242188 2.714844 12.207031 C 2.691406 12.171875 2.667969 12.136719 2.640625 12.105469 C 2.613281 12.066406 2.585938 12.027344 2.558594 11.992188 C 2.53125 11.953125 2.503906 11.914062 2.476562 11.878906 C 2.445312 11.835938 2.414062 11.792969 2.382812 11.75 C 2.355469 11.707031 2.324219 11.664062 2.292969 11.621094 C 2.242188 11.554688 2.191406 11.484375 2.140625 11.414062 C 2.101562 11.355469 2.058594 11.296875 2.011719 11.238281 C 1.980469 11.191406 1.945312 11.144531 1.914062 11.097656 C 1.882812 11.054688 1.851562 11.011719 1.816406 10.96875 C 1.785156 10.925781 1.753906 10.882812 1.722656 10.839844 C 1.695312 10.800781 1.667969 10.761719 1.640625 10.722656 C 1.609375 10.683594 1.578125 10.640625 1.550781 10.601562 C 1.523438 10.558594 1.492188 10.519531 1.464844 10.480469 C 1.4375 10.441406 1.40625 10.40625 1.378906 10.367188 C 1.347656 10.324219 1.316406 10.277344 1.285156 10.234375 C 1.234375 10.167969 1.183594 10.097656 1.136719 10.027344 C 1.089844 9.964844 1.042969 9.898438 0.992188 9.835938 C 0.960938 9.792969 0.933594 9.75 0.902344 9.707031 C 0.875 9.667969 0.84375 9.628906 0.816406 9.589844 C 0.78125 9.542969 0.746094 9.496094 0.710938 9.445312 C 0.683594 9.40625 0.65625 9.371094 0.628906 9.332031 C 0.589844 9.28125 0.554688 9.234375 0.519531 9.1875 C 0.492188 9.148438 0.464844 9.109375 0.4375 9.070312 C 0.394531 9.011719 0.351562 8.953125 0.308594 8.890625 C 0.300781 8.882812 0.296875 8.875 0.289062 8.867188 C 0.195312 8.734375 0.152344 8.585938 0.175781 8.421875 C 0.199219 8.289062 0.265625 8.183594 0.335938 8.070312 C 0.359375 8.035156 0.382812 7.996094 0.40625 7.957031 C 0.433594 7.917969 0.457031 7.875 0.484375 7.835938 C 0.511719 7.792969 0.539062 7.75 0.5625 7.707031 C 0.59375 7.660156 0.621094 7.613281 0.652344 7.566406 C 0.675781 7.527344 0.699219 7.492188 0.722656 7.453125 C 0.75 7.40625 0.78125 7.359375 0.808594 7.3125 C 0.832031 7.273438 0.855469 7.238281 0.878906 7.199219 C 0.910156 7.152344 0.9375 7.105469 0.96875 7.058594 C 0.992188 7.019531 1.015625 6.984375 1.039062 6.945312 C 1.066406 6.898438 1.097656 6.851562 1.125 6.804688 C 1.148438 6.769531 1.171875 6.730469 1.195312 6.691406 C 1.226562 6.644531 1.253906 6.597656 1.285156 6.550781 C 1.308594 6.515625 1.332031 6.476562 1.355469 6.4375 C 1.382812 6.390625 1.414062 6.34375 1.441406 6.296875 C 1.464844 6.261719 1.488281 6.222656 1.511719 6.183594 C 1.542969 6.136719 1.570312 6.089844 1.601562 6.042969 C 1.625 6.007812 1.648438 5.96875 1.671875 5.929688 C 1.699219 5.882812 1.730469 5.835938 1.757812 5.789062 C 1.785156 5.753906 1.808594 5.714844 1.832031 5.675781 C 1.859375 5.628906 1.886719 5.582031 1.917969 5.535156 C 1.941406 5.5 1.964844 5.460938 1.988281 5.421875 C 2.019531 5.375 2.046875 5.328125 2.074219 5.28125 C 2.101562 5.246094 2.125 5.207031 2.148438 5.167969 C 2.175781 5.121094 2.207031 5.074219 2.234375 5.027344 C 2.257812 4.992188 2.28125 4.953125 2.304688 4.914062 C 2.335938 4.867188 2.363281 4.820312 2.394531 4.773438 C 2.417969 4.738281 2.441406 4.699219 2.464844 4.660156 C 2.492188 4.613281 2.523438 4.566406 2.550781 4.519531 C 2.574219 4.484375 2.597656 4.445312 2.621094 4.40625 C 2.652344 4.359375 2.679688 4.3125 2.710938 4.265625 C 2.734375 4.230469 2.757812 4.191406 2.78125 4.152344 C 2.808594 4.105469 2.839844 4.058594 2.867188 4.011719 C 2.890625 3.976562 2.914062 3.9375 2.9375 3.898438 C 2.96875 3.851562 2.996094 3.804688 3.027344 3.757812 C 3.050781 3.722656 3.074219 3.683594 3.097656 3.644531 C 3.125 3.597656 3.15625 3.550781 3.183594 3.503906 C 3.207031 3.46875 3.230469 3.429688 3.253906 3.390625 C 3.285156 3.34375 3.3125 3.296875 3.34375 3.25 C 3.367188 3.214844 3.390625 3.175781 3.414062 3.136719 C 3.441406 3.089844 3.472656 3.042969 3.5 2.996094 C 3.523438 2.960938 3.546875 2.921875 3.570312 2.882812 C 3.601562 2.835938 3.628906 2.789062 3.660156 2.742188 C 3.683594 2.707031 3.707031 2.667969 3.730469 2.628906 C 3.757812 2.582031 3.789062 2.535156 3.816406 2.488281 C 3.839844 2.453125 3.863281 2.414062 3.886719 2.375 C 3.917969 2.328125 3.945312 2.28125 3.976562 2.234375 C 4 2.199219 4.023438 2.160156 4.046875 2.121094 C 4.074219 2.074219 4.105469 2.027344 4.132812 1.980469 C 4.160156 1.945312 4.183594 1.90625 4.207031 1.867188 C 4.234375 1.820312 4.261719 1.773438 4.292969 1.726562 C 4.316406 1.691406 4.339844 1.652344 4.363281 1.613281 C 4.394531 1.566406 4.421875 1.519531 4.449219 1.472656 C 4.476562 1.4375 4.5 1.398438 4.523438 1.359375 C 4.550781 1.3125 4.582031 1.265625 4.609375 1.21875 C 4.632812 1.183594 4.65625 1.144531 4.679688 1.105469 C 4.710938 1.058594 4.738281 1.011719 4.769531 0.964844 C 4.792969 0.929688 4.816406 0.890625 4.839844 0.851562 C 4.867188 0.804688 4.898438 0.757812 4.925781 0.710938 C 4.945312 0.679688 4.964844 0.648438 4.984375 0.617188 C 5 0.59375 5.015625 0.570312 5.03125 0.546875 C 5.039062 0.535156 5.046875 0.519531 5.054688 0.507812 C 5.066406 0.488281 5.078125 0.46875 5.089844 0.453125 C 5.089844 0.445312 5.09375 0.441406 5.097656 0.433594 C 5.125 0.394531 5.148438 0.367188 5.195312 0.355469 C 5.234375 0.34375 5.277344 0.347656 5.3125 0.371094 Z M 5.3125 0.371094 "/>
</g>
</svg>
