<?xml version="1.0" encoding="UTF-8"?>
<svg id="Layer_1" xmlns="http://www.w3.org/2000/svg" xmlns:rdf="http://www.w3.org/1999/02/22-rdf-syntax-ns#" xmlns:dc="http://purl.org/dc/elements/1.1/" xmlns:cc="http://creativecommons.org/ns#" version="1.1" viewBox="0 0 1139 424">
  <!-- Generator: Adobe Illustrator 30.2.1, SVG Export Plug-In . SVG Version: 2.1.1 Build 1)  -->
  <defs>
    <style>
      .st0 {
        fill: #fff;
      }
    </style>
  </defs>
  <g>
    <path class="st0" d="M588.44,109.96v42.65c0,1.4.06,3.02.19,4.88.12,1.86.44,3.77.95,5.73.5,1.96,1.22,3.89,2.13,5.78.92,1.89,2.16,3.59,3.74,5.08,1.58,1.5,3.52,2.69,5.83,3.59,2.3.9,5.1,1.35,8.38,1.35,4.17,0,7.66-.61,10.47-1.84,2.81-1.23,5.08-2.99,6.82-5.28,1.74-2.29,2.99-5.06,3.75-8.32.75-3.25,1.13-6.91,1.13-10.96v-42.65h4.17v42.65c0,4.25-.42,8.21-1.28,11.86-.85,3.65-2.29,6.85-4.31,9.57-2.02,2.72-4.72,4.87-8.1,6.43-3.38,1.56-7.6,2.34-12.65,2.34-3.98,0-7.39-.53-10.23-1.59-2.84-1.06-5.2-2.44-7.06-4.13-1.86-1.69-3.33-3.64-4.4-5.83-1.07-2.19-1.89-4.4-2.46-6.63-.57-2.22-.92-4.38-1.04-6.48-.13-2.09-.19-3.94-.19-5.53v-42.65h4.17Z"/>
    <path class="st0" d="M702.06,130.29c-.13-3.06-.74-5.71-1.84-7.97-1.11-2.26-2.61-4.15-4.5-5.68-1.9-1.53-4.15-2.67-6.78-3.44-2.62-.76-5.48-1.14-8.57-1.14-1.9,0-3.93.23-6.11.7-2.18.47-4.2,1.28-6.06,2.44-1.86,1.17-3.4,2.72-4.59,4.68-1.2,1.96-1.8,4.4-1.8,7.33s.66,5.18,1.99,6.98c1.33,1.79,3.06,3.24,5.21,4.33,2.15,1.1,4.61,1.98,7.39,2.64,2.78.67,5.59,1.3,8.43,1.9,2.91.6,5.73,1.31,8.48,2.14,2.75.83,5.21,1.96,7.39,3.39,2.18,1.43,3.93,3.29,5.26,5.58,1.33,2.29,1.99,5.17,1.99,8.62,0,3.72-.76,6.84-2.27,9.37-1.51,2.53-3.43,4.59-5.73,6.18-2.31,1.6-4.86,2.74-7.67,3.44-2.81.7-5.51,1.05-8.1,1.05-3.98,0-7.71-.45-11.18-1.34-3.48-.9-6.51-2.36-9.1-4.38-2.59-2.03-4.63-4.63-6.11-7.82-1.49-3.19-2.19-7.07-2.13-11.66h4.17c-.19,3.92.35,7.22,1.61,9.91,1.26,2.69,3.02,4.9,5.26,6.63,2.24,1.73,4.88,2.97,7.91,3.74,3.03.76,6.22,1.15,9.57,1.15,2.02,0,4.18-.26,6.49-.8,2.31-.53,4.42-1.43,6.35-2.69,1.92-1.26,3.53-2.92,4.83-4.98,1.29-2.06,1.94-4.65,1.94-7.77s-.66-5.43-1.99-7.32c-1.33-1.9-3.08-3.42-5.26-4.59-2.18-1.16-4.64-2.09-7.39-2.79-2.75-.7-5.57-1.35-8.48-1.95-2.84-.6-5.65-1.29-8.43-2.09-2.78-.8-5.25-1.88-7.39-3.24-2.15-1.36-3.88-3.12-5.21-5.28-1.33-2.16-1.99-4.93-1.99-8.32s.68-6.29,2.04-8.72c1.36-2.42,3.13-4.38,5.31-5.88,2.18-1.5,4.63-2.59,7.34-3.29,2.71-.7,5.4-1.05,8.05-1.05,3.54,0,6.84.42,9.9,1.25,3.06.83,5.75,2.13,8.05,3.89,2.31,1.76,4.15,4.04,5.54,6.83,1.39,2.79,2.18,6.14,2.37,10.07h-4.17,0Z"/>
    <path class="st0" d="M607.89,266.67c3.3,0,6.61-.54,9.94-1.61,3.33-1.07,6.34-2.88,9.05-5.41,2.7-2.53,4.9-5.93,6.58-10.19,1.68-4.27,2.52-9.62,2.52-16.07,0-5.06-.48-9.4-1.44-13-.96-3.61-2.21-6.64-3.76-9.11-1.55-2.46-3.33-4.4-5.34-5.83-2.01-1.42-4.09-2.51-6.23-3.28-2.14-.76-4.28-1.27-6.43-1.51-2.14-.24-4.07-.37-5.78-.37h-18.1v66.37h18.99ZM584.55,196.35h23.14c6.33,0,11.59,1.04,15.78,3.12,4.19,2.08,7.53,4.85,10.04,8.32,2.51,3.47,4.27,7.42,5.29,11.86,1.02,4.44,1.53,9.02,1.53,13.73,0,5.27-.64,10.18-1.93,14.72-1.29,4.54-3.28,8.48-5.98,11.81-2.7,3.33-6.12,5.95-10.24,7.85-4.12,1.91-9.02,2.86-14.69,2.86h-22.94v-74.28Z"/>
    <polygon class="st0" points="700.43 200.29 657.31 200.29 657.31 230.05 697.86 230.05 697.86 234 657.31 234 657.31 266.67 700.92 266.67 700.92 270.62 652.96 270.62 652.96 196.34 700.43 196.34 700.43 200.29"/>
    <path class="st0" d="M720.43,233.58h24.83c3.16,0,5.85-.5,8.06-1.51,2.21-1,3.97-2.31,5.29-3.9,1.32-1.6,2.28-3.37,2.87-5.31.59-1.94.89-3.88.89-5.83,0-1.39-.2-3.03-.6-4.94-.39-1.91-1.18-3.75-2.37-5.51-1.19-1.77-2.86-3.26-5-4.47-2.14-1.21-5-1.82-8.56-1.82h-25.42v33.29h0ZM716.08,196.34h30.07c1.98,0,4.17.25,6.58.73,2.41.49,4.65,1.48,6.72,2.96,2.08,1.49,3.81,3.61,5.19,6.35,1.38,2.74,2.08,6.33,2.08,10.77,0,6.52-1.91,11.55-5.74,15.09-3.83,3.54-9.3,5.31-16.42,5.31h-24.13v33.08h-4.35v-74.28Z"/>
    <polygon class="st0" points="824.56 196.34 824.56 200.29 799.64 200.29 799.64 270.62 795.29 270.62 795.29 200.29 770.46 200.29 770.46 196.34 824.56 196.34"/>
    <path class="st0" d="M862.28,233.48c0,4.79.66,9.29,1.98,13.52,1.32,4.23,3.23,7.92,5.74,11.08,2.5,3.16,5.57,5.67,9.2,7.54,3.62,1.87,7.75,2.81,12.36,2.81s8.72-.93,12.31-2.81c3.59-1.87,6.64-4.39,9.15-7.54,2.5-3.16,4.42-6.85,5.74-11.08,1.32-4.23,1.98-8.74,1.98-13.52s-.66-9.29-1.98-13.52c-1.32-4.23-3.23-7.92-5.74-11.08-2.51-3.16-5.56-5.67-9.15-7.54-3.6-1.87-7.7-2.81-12.31-2.81s-8.74.94-12.36,2.81c-3.63,1.87-6.69,4.39-9.2,7.54-2.51,3.16-4.42,6.85-5.74,11.08-1.32,4.23-1.98,8.74-1.98,13.52ZM925.09,233.48c0,5.41-.76,10.49-2.27,15.24-1.52,4.75-3.71,8.87-6.58,12.38-2.87,3.5-6.38,6.26-10.53,8.27-4.15,2.01-8.87,3.02-14.14,3.02s-10.01-1.01-14.19-3.02c-4.19-2.01-7.72-4.77-10.58-8.27-2.87-3.5-5.06-7.63-6.58-12.38-1.52-4.75-2.27-9.83-2.27-15.24s.76-10.49,2.27-15.24c1.52-4.75,3.71-8.88,6.58-12.38,2.87-3.5,6.39-6.26,10.58-8.27,4.19-2.01,8.92-3.02,14.19-3.02s9.99,1.01,14.14,3.02c4.16,2.01,7.66,4.77,10.53,8.27,2.87,3.5,5.06,7.63,6.58,12.38,1.51,4.75,2.27,9.83,2.27,15.24Z"/>
    <polygon class="st0" points="980.84 200.29 940.88 200.29 940.88 230.05 976.88 230.05 976.88 234 940.88 234 940.88 270.62 936.53 270.62 936.53 196.34 980.84 196.34 980.84 200.29"/>
    <path class="st0" d="M614.97,347.05c2.32,0,4.57-.39,6.76-1.18,2.18-.79,4.13-2.1,5.84-3.93,1.71-1.83,3.07-4.22,4.1-7.16,1.02-2.95,1.54-6.54,1.54-10.77,0-3.88-.36-7.38-1.07-10.51-.72-3.12-1.9-5.8-3.53-8.03-1.64-2.23-3.81-3.93-6.5-5.12-2.7-1.19-6.03-1.78-9.99-1.78h-11.47v48.49h14.34ZM616.1,284.34c4.71,0,9.1.79,13.16,2.37,4.06,1.58,7.58,3.95,10.55,7.11,2.97,3.16,5.29,7.11,6.97,11.85,1.67,4.74,2.51,10.31,2.51,16.7,0,5.6-.68,10.77-2.05,15.52-1.37,4.74-3.43,8.83-6.2,12.28-2.76,3.45-6.21,6.16-10.34,8.13-4.13,1.98-9,2.96-14.6,2.96h-31.55v-76.93h31.55Z"/>
    <polygon class="st0" points="679.98 298.56 679.98 315.05 715.42 315.05 715.42 328.2 679.98 328.2 679.98 347.05 719.42 347.05 719.42 361.28 663.9 361.28 663.9 284.34 718.6 284.34 718.6 298.56 679.98 298.56"/>
    <polygon class="st0" points="751.48 298.56 751.48 316.34 782.11 316.34 782.11 329.49 751.48 329.49 751.48 361.28 735.4 361.28 735.4 284.34 786.82 284.34 786.82 298.56 751.48 298.56"/>
    <polygon class="st0" points="815.89 298.56 815.89 315.05 851.33 315.05 851.33 328.2 815.89 328.2 815.89 347.05 855.33 347.05 855.33 361.28 799.8 361.28 799.8 284.34 854.51 284.34 854.51 298.56 815.89 298.56"/>
    <polygon class="st0" points="919.48 335.96 919.48 284.34 934.54 284.34 934.54 361.28 918.46 361.28 888.04 309.77 887.83 309.77 887.83 361.28 872.77 361.28 872.77 284.34 888.75 284.34 919.28 335.96 919.48 335.96"/>
    <path class="st0" d="M966.1,342.31c.89,1.79,2.06,3.25,3.53,4.36,1.46,1.12,3.19,1.94,5.17,2.48,1.98.54,4.03.81,6.15.81,1.43,0,2.97-.12,4.61-.38,1.64-.25,3.17-.74,4.61-1.46,1.43-.72,2.63-1.7,3.59-2.96.96-1.26,1.43-2.86,1.43-4.79,0-2.08-.63-3.77-1.9-5.06-1.26-1.29-2.92-2.37-4.96-3.23-2.05-.86-4.38-1.62-6.97-2.26-2.59-.65-5.22-1.37-7.89-2.16-2.73-.72-5.39-1.6-7.99-2.64-2.59-1.04-4.92-2.39-6.97-4.04-2.05-1.65-3.7-3.72-4.97-6.2-1.27-2.48-1.9-5.48-1.9-9,0-3.95.8-7.38,2.41-10.29,1.6-2.91,3.7-5.33,6.3-7.27,2.6-1.94,5.53-3.37,8.81-4.31,3.27-.93,6.56-1.4,9.83-1.4,3.83,0,7.5.45,11.02,1.35,3.51.9,6.64,2.35,9.37,4.36,2.73,2.01,4.9,4.58,6.5,7.71,1.61,3.12,2.41,6.91,2.41,11.37h-15.57c-.14-2.3-.6-4.21-1.38-5.71-.79-1.51-1.83-2.69-3.13-3.56-1.3-.86-2.78-1.47-4.46-1.83-1.67-.36-3.5-.54-5.48-.54-1.29,0-2.59.14-3.89.43-1.3.29-2.48.79-3.54,1.51-1.06.72-1.93,1.62-2.61,2.69-.68,1.08-1.03,2.44-1.03,4.09,0,1.51.27,2.73.82,3.66.55.93,1.62,1.8,3.23,2.59,1.6.79,3.82,1.58,6.66,2.37,2.83.79,6.54,1.8,11.11,3.02,1.37.29,3.26.81,5.69,1.56,2.42.75,4.83,1.96,7.22,3.61,2.39,1.65,4.46,3.86,6.2,6.62,1.74,2.77,2.61,6.3,2.61,10.61,0,3.52-.65,6.79-1.94,9.81-1.3,3.02-3.23,5.62-5.79,7.81-2.56,2.19-5.74,3.9-9.53,5.12-3.79,1.22-8.18,1.83-13.16,1.83-4.03,0-7.94-.52-11.73-1.56-3.79-1.04-7.14-2.67-10.04-4.9-2.9-2.23-5.21-5.06-6.91-8.51-1.71-3.45-2.53-7.54-2.46-12.29h15.57c0,2.58.44,4.78,1.33,6.57h0Z"/>
    <polygon class="st0" points="1038.56 298.56 1038.56 315.05 1074 315.05 1074 328.2 1038.56 328.2 1038.56 347.05 1078 347.05 1078 361.28 1022.48 361.28 1022.48 284.34 1077.2 284.34 1077.2 298.56 1038.56 298.56"/>
    <polygon class="st0" points="640.73 174.43 646.31 174.43 646.31 182.81 640.73 182.81 640.73 174.43"/>
    <polygon class="st0" points="713.37 174.43 718.95 174.43 718.95 182.81 713.37 182.81 713.37 174.43"/>
  </g>
  <polygon class="st0" points="119.79 363 61.53 192.48 61 139.8 119.95 302.01 119.79 363"/>
  <polygon class="st0" points="484.61 363 541.2 192.48 541.97 140.39 484.61 301.2 484.61 363"/>
  <path class="st0" d="M384.02,218.64h-156.13l-15.92-41.7-9.82-25.71,102.57-33.49,104.47,33.49-25.17,67.41ZM304.86,61l-239.52,76.44,58.75,153.87h356.37l57.46-153.87-233.06-76.44Z"/>
  <polygon class="st0" points="126.8 301.22 477.14 301.22 477.14 362.44 126.8 362.44 126.8 301.22"/>
  <polygon class="st0" points="301.27 154.99 301.27 125.98 211.08 155.49 219.9 178.27 301.27 154.99"/>
  <polygon class="st0" points="391.53 178.58 400.3 155.94 308.26 126.2 308.26 155.22 391.53 178.58"/>
</svg>